<svg height="38.53" viewBox="0 0 398.375 38.53" width="398.375" xmlns="http://www.w3.org/2000/svg"><path d="m504.975 3301.77-.84 7.22h4.116l.882-7.22h3.906l-.966 7.22h4.158l.882-7.22h3.654v-4.5h-3.024l.924-8.06h3.57v-4.5h-2.9l.8-6.38h-4.158l-.8 6.38h-3.822l.756-6.38h-4.158l-.756 6.38h-3.738v4.5h3.066l-.882 8.06h-3.654v4.5h2.982zm8.652-4.5h-3.864l.924-8.06h3.864zm40.975-6.13 1.764-5.92a4.605 4.605 0 0 0 -4.578-6.18h-10.626v4.12h10.626a.835.835 0 0 1 .672.21.92.92 0 0 1 0 .67l-1.764 5.97zm-9.954 20.37h12.352v-4.12h-12.352a1.61 1.61 0 0 1 -1.638-1.63v-6.81h-4.116v6.81c.336 3.5 2.254 5.41 5.754 5.75zm45.335-4.28a.722.722 0 0 1 -.252-.72v-9.2c-.2-3.36-1.9-5.27-5.124-5.75h-1.932l3.36-14.2-3.99-.92-8.064 34.15 3.99.96 3.738-15.87h2.9a1.6 1.6 0 0 1 1.008 1.63v9.2a4.721 4.721 0 0 0 4.7 4.96 9.78 9.78 0 0 0 1.47-.21l4.788-1.35-1.092-3.9-4.788 1.26a.909.909 0 0 1 -.714-.04zm27.557-23.06v-.17h4.62v-4.07h-4.62v-3.24h-4.116v3.24h-2.6v4.07h2.6v.17a29.293 29.293 0 0 1 -1.092 6.55l-3.066 9.45 3.906 1.3 3.066-9.45a32.236 32.236 0 0 0 1.3-7.85zm15.792 2.48v-4.12h-6.678v4.12zm-5.082 12.22v-7.39h-4.074v7.39h-1.848q-5.292.495-5.754 5.75v1.05q.461 5.25 5.754 5.76h.21q5.207-.51 5.712-5.76v-2.69a1.372 1.372 0 0 1 1.3.97v3.02h4.074v-3.02a4.824 4.824 0 0 0 -1.848-3.74 6.224 6.224 0 0 0 -3.528-1.34zm-5.712 8.44h-.21a1.578 1.578 0 0 1 -1.638-1.64v-1.05a1.6 1.6 0 0 1 1.638-1.68h1.848v2.73a1.612 1.612 0 0 1 -1.638 1.64zm45.061-26.04-3.444-2.23-6.174 9.54-.84-.97a9.625 9.625 0 0 1 -1.806-5.08v-5.8h-4.074v5.8a13.284 13.284 0 0 0 2.772 7.73l1.6 1.89-2.478 3.78a16.467 16.467 0 0 0 -2.352 7.94v1.89c.336 3.5 2.254 5.41 5.754 5.75h10.584v-4.12h-10.588a1.628 1.628 0 0 1 -1.68-1.63v-1.89a12.846 12.846 0 0 1 1.722-5.67zm33.58 9.87 1.764-5.92a4.605 4.605 0 0 0 -4.578-6.18h-10.626v4.12h10.626a.836.836 0 0 1 .672.21.92.92 0 0 1 0 .67l-1.764 5.97zm-9.954 20.37h12.348v-4.12h-12.348a1.61 1.61 0 0 1 -1.638-1.63v-6.81h-4.116v6.81c.336 3.5 2.253 5.41 5.754 5.75zm38.2-19.87 6.51-8.02a4.063 4.063 0 0 0 .672-4.24 3.918 3.918 0 0 0 -3.78-2.02h-10.287v4.12h9.87l-6.51 8.02a3.681 3.681 0 0 0 3.108 6.26h5.334a1.612 1.612 0 0 1 1.638 1.64v8.31a1.612 1.612 0 0 1 -1.638 1.64h-6.678a2.323 2.323 0 0 1 -1.638-.54v-2.44h-4.116v2.52a4.129 4.129 0 0 0 1.974 3.44 6.707 6.707 0 0 0 3.78 1.14h6.678q5.25-.51 5.754-5.76v-8.31q-.5-5.25-5.754-5.76h-4.914zm27.279 7.73a32.261 32.261 0 0 0 1.134 7.81l1.3 4.16 3.906-1.26-1.26-4.07a25.587 25.587 0 0 1 -.966-6.64v-22.59h-4.116v22.59zm18.648-19.49h-7.014v4.08h7.266a1.048 1.048 0 0 1 -.126.25l-1.806 3.53 3.612 1.89 1.848-3.49a4.469 4.469 0 0 0 .084-4.28 4.4 4.4 0 0 0 -3.864-1.98zm-4.074 31.59h8.148v-4.12h-8.148a1.507 1.507 0 0 1 -1.638-1.13v-3.24h-4.116v3.24q.672 4.95 5.754 5.25zm37.59.08a6.91 6.91 0 0 0 6.51-5.21l1.428-6.34-3.99-.88-1.428 6.3a2.959 2.959 0 0 1 -2.52 2.02h-3.99a1.585 1.585 0 0 1 -1.638-1.64v-14.37h8.148v-4.11h-8.148v-3.4h8.148v-4.08h-8.148v-3.06h-4.116v3.06h-2.436v4.08h2.436v3.4h-2.436v4.11h2.436v14.37q.462 5.25 5.754 5.75zm29.077-17.03a9.97 9.97 0 0 1 .5 3.21 6.932 6.932 0 0 1 -.294 2.54 1.169 1.169 0 0 1 -1.176.61h-.42v-10.2q.889 2.355 1.393 3.84zm-1.386-4.81v-9.7h2.352q-1.134 5.13-2.352 9.7zm14.868-15.45h-4.327v5.41h-4.41v-3.86h-10.118v36.96h3.99v-11.59l.252 4.03h1.05a3.8 3.8 0 0 0 3.36-1.51 8.733 8.733 0 0 0 1.05-4.87 19.368 19.368 0 0 0 -2.268-8.95q.8-2.22 1.68-5.46h3.066a104 104 0 0 1 -.525 11.95 25.67 25.67 0 0 1 -1.7 6.97 19.531 19.531 0 0 1 -3.822 5.52l3.108 3.87a24.191 24.191 0 0 0 4.851-7.73 40.381 40.381 0 0 0 2.079-10.63h4.957c-.056 3.59-.175 6.3-.357 8.15a14.36 14.36 0 0 1 -.63 3.57 1.13 1.13 0 0 1 -1.029.8 39.109 39.109 0 0 1 -4.452-.42l.168 5.04a48.3 48.3 0 0 0 5.376.42 4.078 4.078 0 0 0 2.52-.67 5.856 5.856 0 0 0 1.533-3.03 33.061 33.061 0 0 0 .882-6.72q.231-4.365.231-11.92h-8.946c.056-1.6.084-3.32.084-5.17h10.33v-4.75h-7.98v-5.41zm41.639 19.69a50.493 50.493 0 0 0 6.636-10.16l-3.066-3.15a70.871 70.871 0 0 1 -5.754 8.86 68.381 68.381 0 0 1 -2.268-7.81v-6.85h-4.284v31.21a6.145 6.145 0 0 1 -.126 1.7 1.143 1.143 0 0 1 -1.008.27q-.756 0-4.2-.21l.21 4.75q3.864.21 4.746.21a13.322 13.322 0 0 0 2.478-.17 2.354 2.354 0 0 0 1.386-.94 3.763 3.763 0 0 0 .693-1.98c.07-.8.105-2.05.105-3.76v-12.81a42.912 42.912 0 0 0 9.03 16.13l2.73-4.16a43.441 43.441 0 0 1 -7.308-11.13zm-13.608-6.09a40.11 40.11 0 0 1 -3 8.99 28.31 28.31 0 0 1 -4.725 7.39l2.436 4.46a31.886 31.886 0 0 0 5.964-9.31 44.193 44.193 0 0 0 3.234-11.53v-4.78h-10.5v4.78h6.594z" fill="#fff" fill-rule="evenodd" transform="translate(-502 -3274.25)"/></svg>