<svg height="39.1" viewBox="0 0 268 39.1" width="268" xmlns="http://www.w3.org/2000/svg"><path d="m570.044 3441.77-.84 7.22h4.116l.882-7.22h3.906l-.966 7.22h4.158l.882-7.22h3.654v-4.5h-3.024l.924-8.06h3.57v-4.5h-2.9l.8-6.38h-4.158l-.8 6.38h-3.822l.756-6.38h-4.158l-.756 6.38h-3.738v4.5h3.07l-.882 8.06h-3.654v4.5h2.982zm8.652-4.5h-3.864l.924-8.06h3.864zm30-2.75a9.97 9.97 0 0 1 .5 3.21 6.932 6.932 0 0 1 -.294 2.54 1.169 1.169 0 0 1 -1.176.61h-.42v-10.2q.882 2.355 1.386 3.84zm-1.386-4.81v-9.7h2.352q-1.134 5.13-2.352 9.7zm14.868-15.45h-4.326v5.41h-4.41v-3.86h-10.126v36.96h3.99v-11.59l.252 4.03h1.05a3.8 3.8 0 0 0 3.36-1.51 8.733 8.733 0 0 0 1.05-4.87 19.368 19.368 0 0 0 -2.268-8.95q.8-2.22 1.68-5.46h3.07a104 104 0 0 1 -.525 11.95 25.67 25.67 0 0 1 -1.7 6.97 19.531 19.531 0 0 1 -3.822 5.52l3.108 3.87a24.191 24.191 0 0 0 4.851-7.73 40.381 40.381 0 0 0 2.079-10.63h4.956c-.056 3.59-.175 6.3-.357 8.15a14.36 14.36 0 0 1 -.63 3.57 1.13 1.13 0 0 1 -1.029.8 39.109 39.109 0 0 1 -4.452-.42l.168 5.04a48.3 48.3 0 0 0 5.376.42 4.078 4.078 0 0 0 2.52-.67 5.856 5.856 0 0 0 1.533-3.03 33.061 33.061 0 0 0 .882-6.72q.231-4.365.231-11.92h-8.946c.056-1.6.084-3.32.084-5.17h10.332v-4.75h-7.98v-5.41zm41.639 19.69a50.493 50.493 0 0 0 6.636-10.16l-3.066-3.15a70.871 70.871 0 0 1 -5.754 8.86 68.381 68.381 0 0 1 -2.268-7.81v-6.85h-4.284v31.21a6.145 6.145 0 0 1 -.126 1.7 1.143 1.143 0 0 1 -1.008.27q-.756 0-4.2-.21l.21 4.75q3.864.21 4.746.21a13.322 13.322 0 0 0 2.478-.17 2.354 2.354 0 0 0 1.386-.94 3.763 3.763 0 0 0 .693-1.98c.07-.8.105-2.05.105-3.76v-12.81a42.912 42.912 0 0 0 9.03 16.13l2.73-4.16a43.441 43.441 0 0 1 -7.308-11.13zm-13.608-6.09a40.11 40.11 0 0 1 -3 8.99 28.31 28.31 0 0 1 -4.725 7.39l2.436 4.46a31.886 31.886 0 0 0 5.964-9.31 44.193 44.193 0 0 0 3.234-11.53v-4.78h-10.5v4.78h6.594zm59.968 3.32 1.68-4.58a57 57 0 0 1 -11.76-11.76h-5.208a57.02 57.02 0 0 1 -11.76 11.76l1.68 4.58a24.715 24.715 0 0 0 4.788-3.95v2.73h15.792v-2.73a24.715 24.715 0 0 0 4.788 3.95zm-18.018-5.79a60.134 60.134 0 0 0 5.334-6.98 60.023 60.023 0 0 0 5.334 6.98h-10.672zm11.634 12.68a39.341 39.341 0 0 1 -10.668 10.79l2.184 4.33a45.642 45.642 0 0 0 13.818-15.12v-4.7h-23.272v4.7h17.934zm31.916-23.81h-4.242v3.86h-5.544v4.33h5.544v4.57h-6.384v4.33h27.384v-4.33h-6.384v-4.57h5.544v-4.33h-5.544v-3.86h-4.242v3.86h-6.132zm6.132 8.19v4.57h-6.132v-4.57zm-9.072 21.79h12.012v2.99h-12.016v-2.99zm12.012 6.98v1.55h4.41v-19.4h-20.836v19.4h4.41v-1.55h12.012zm-12.012-10.76v-2.94h12.012v2.94h-12.016zm36.179-7.09q.67-3.75 1.008-7.56h.672v10.92c-1.344.44-2.913.88-4.7 1.3l.336 4.66a34.457 34.457 0 0 0 4.368-1.22v11.43h4.2v-12.77a1.611 1.611 0 0 1 .483-.23.677.677 0 0 0 .4-.23l2.31 3.61a29.944 29.944 0 0 0 5.208-8.28 58.535 58.535 0 0 0 3.654-11.21h1.213a59.367 59.367 0 0 1 -4.326 14.59 35.931 35.931 0 0 1 -7.1 10.74l2.6 3.82a27.567 27.567 0 0 0 4.326-5.38l.168 4.66c2.436.17 4.326.26 5.67.26a3.193 3.193 0 0 0 1.323-.24 2.446 2.446 0 0 0 1.008-1.36 11.271 11.271 0 0 0 .693-3.11q.21-1.965.441-5.9t.315-9.24q.084-5.31.168-13.59h-10.456c.2-.86.5-2.31.924-4.32l-4.032-.63a95.115 95.115 0 0 1 -2.394 10.67v-3.57h-2.6v-6.35h-4.2v6.35h-.298q0-.21.168-4.41l-3.4-.3a155.218 155.218 0 0 1 -1.512 15.79zm12.558-9.58h1.344a48.29 48.29 0 0 1 -5.292 13.44l-.042-2.98a20.868 20.868 0 0 0 -2.688 1.13v-5.5l2.52 3.44a34.367 34.367 0 0 0 4.158-9.53zm2.226 23.6c.476-.78.951-1.61 1.428-2.47a40.81 40.81 0 0 0 3.864-10.8q-.168 5.925-.42 8.93a35.066 35.066 0 0 1 -.441 3.8.826.826 0 0 1 -.525.8 36.685 36.685 0 0 1 -3.906-.26zm-8.9-18.06v-3.52h1.638a23.079 23.079 0 0 1 -1.638 3.52zm54.184-2.05v3.31h-3.116l.378-3.31h2.73zm.546 23.6v1.55h4.238v-15.28h-13.99v15.28h3.99v-1.55h5.754zm-11 .71v-11.29h-10.344v12.81h3.906v-1.52h6.426zm-6.426-7.26h2.764v3.23h-2.772v-3.23zm6.762-9.28h16.17v-4.46h-1.974v-7.43h-6.09l.252-2.77h7.14v-4.45h-15.174v4.45h3.906l-.294 2.77h-2.814v4.12h2.1l-.294 3.31h-2.94v4.46zm4.914 11.59v-5.13h5.754v5.13h-5.766zm-5.376-26.38v-4.24h-10.218v4.24h10.206zm.8 6.3v-4.53h-11.76v4.53zm-.84 5.97v-4.12h-9.926v4.12h9.912zm0 5.92v-4.08h-9.926v4.08h9.912z" fill="#fff" fill-rule="evenodd" transform="translate(-567.062 -3414.09)"/></svg>