<?xml version="1.0" encoding="UTF-8"?><svg id="_レイヤー_2" xmlns="http://www.w3.org/2000/svg" viewBox="0 0 406.67 552.77"><defs><style>.cls-1,.cls-2,.cls-3{stroke:#0064b3;stroke-linecap:round;stroke-linejoin:round;stroke-width:14px;}.cls-1,.cls-4{fill:#fff;}.cls-2,.cls-5{fill:#ffb8c1;}.cls-3{fill:none;}.cls-4,.cls-5{stroke-width:0px;}</style></defs><g id="_饑2"><path class="cls-2" d="M203.33,236.83c40.83,0,28,117.27,123.97,169.1,55.31,29.87,72.37,19.72,72.37,87.32,0,31.88-133.18,52.52-196.33,52.52h0c-63.15,0-196.33-20.64-196.33-52.52,0-67.6,17.06-57.45,72.37-87.32,95.97-51.82,83.13-169.1,123.97-169.1"/><path class="cls-1" d="M259.02,390.07c-16.02,4.98-48.1,46.82-57.19,77.59-9.1-30.77-41.18-72.61-57.19-77.59"/><ellipse class="cls-1" cx="203.33" cy="228.08" rx="143.34" ry="174.72"/><path class="cls-4" d="M368.33,214.26s0,0-.01,0c-.46-83.58-34.7-176.2-129.31-190.44l-.52-11.14s-15.49-5.67-35.16-5.67-35.16,5.67-35.16,5.67l-.52,11.14C73.05,38.05,38.81,130.67,38.35,214.25c0,0-.01,0-.01,0,0,0-9.48,19.45,19.09,25.88,28.83,6.48,68.61-15.38,145.9-15.38s117.07,21.86,145.9,15.38c28.57-6.43,19.09-25.88,19.09-25.88Z"/><path class="cls-3" d="M239.01,23.8c25.9,3.9,47.27,13.67,64.67,27.52,46.16,36.75,64.31,102.23,64.64,162.94"/><path class="cls-3" d="M38.35,214.26c.46-83.59,34.7-176.22,129.31-190.46"/><path class="cls-5" d="M203.33,224.76c77.29,0,117.07,21.86,145.9,15.38,28.57-6.43,19.09-25.88,19.09-25.88,0,0-49.5-33.03-164.99-33.03-115.49,0-164.99,33.03-164.99,33.03,0,0-9.48,19.45,19.09,25.88,28.83,6.48,68.61-15.38,145.9-15.38Z"/><path class="cls-3" d="M203.33,181.23c-115.49,0-164.99,33.03-164.99,33.03,0,0-9.48,19.45,19.09,25.88,28.83,6.48,68.61-15.38,145.9-15.38,77.29,0,117.07,21.86,145.9,15.38,28.57-6.43,19.09-25.88,19.09-25.88,0,0-11.21-7.48-35.4-15.32"/><path class="cls-3" d="M252.66,134.91l-10.38-40.64-3.79-81.6s-15.49-5.67-35.16-5.67c-19.67,0-35.16,5.67-35.16,5.67l-1.19,25.66-2.6,55.94-10.38,40.64"/></g></svg>