<svg height="59" viewBox="0 0 252 59" width="252" xmlns="http://www.w3.org/2000/svg"><path d="m329.689 1524.72a26.5 26.5 0 0 1 3.7-.48.926.926 0 0 0 1.08-.68c0-.56-1.1-.88-1.781-.88a5.389 5.389 0 0 0 -1.7.64 18.6 18.6 0 0 1 -4.362.74 2.789 2.789 0 0 1 -1.5-.32.9.9 0 0 0 -.4-.22.5.5 0 0 0 -.22.52c0 .72.86 1.2 1.98 1.2a11.671 11.671 0 0 0 1.921-.28 2.993 2.993 0 0 1 .48 2 23.05 23.05 0 0 1 -.2 2.91c-3.821.44-3.981.44-4.081.44a5.33 5.33 0 0 1 -2.081-.44 1.762 1.762 0 0 0 -.521-.2c-.12 0-.18.08-.18.36 0 1.02 1.681 1.68 2.621 1.68a5.881 5.881 0 0 0 1.3-.28 32.453 32.453 0 0 1 6.763-.78 15.64 15.64 0 0 1 3.682.38 1.3 1.3 0 0 0 .38.04.722.722 0 0 0 .84-.6c0-.88-2.181-1.34-2.5-1.34-.56 0-.76.26-1.541.3-1 .06-2.221.16-3.461.3a22.772 22.772 0 0 0 .54-3.69 1.27 1.27 0 0 0 -.759-1.32zm23.764 4.71c.3-1.24.74-3.09 1.06-4.29a1.058 1.058 0 0 1 .44-.66.733.733 0 0 0 .44-.58c0-.52-1.54-1.18-2.12-1.18-.441 0-.541.34-1.121.4-1.8.26-6.443.62-6.943.62a3.439 3.439 0 0 1 -1.041-.12 2.62 2.62 0 0 0 -.5-.18c-.06 0-.1.04-.1.14 0 .8 1.281 1.62 2.181 1.62a3.917 3.917 0 0 0 1.141-.2 25.688 25.688 0 0 1 5.662-.9.327.327 0 0 1 .34.4c0 .24-.48 3.43-.74 4.97-5.342.52-5.9.56-6.543.56a4.239 4.239 0 0 1 -1.541-.2 1.9 1.9 0 0 0 -.56-.24c-.1 0-.16.06-.16.24 0 .98 1.681 1.66 2.421 1.66a5.259 5.259 0 0 0 1.241-.22 21.9 21.9 0 0 1 4.942-.56 10.3 10.3 0 0 1 1.941.14 1.569 1.569 0 0 0 .28.04.582.582 0 0 0 .68-.52c0-.36-.44-.84-1.4-.94zm14.619-3.27a1.9 1.9 0 1 0 -1.9 1.91 1.887 1.887 0 0 0 1.9-1.91zm14.319-3.02c-2.5.22-2.541.22-2.661.22h-.241a2.7 2.7 0 0 0 -2.161-1.26 1.506 1.506 0 0 0 -1.28.7c0 .14.18.2.52.2h.24c1.561 0 2.061 2.58 2.061 3.58 0 .4-.06.54-.06.88 0 1.07.44 1.71.921 1.71a.872.872 0 0 0 .7-1.06 20.541 20.541 0 0 0 -.58-3.41l-.06-.24a2.572 2.572 0 0 0 .72-.1 48.952 48.952 0 0 1 5.822-.82.332.332 0 0 1 .4.32c0 .18-2.3 7.05-8.3 9.99a1.466 1.466 0 0 0 -.7.46c0 .02.02.04.08.04.04 0 6.523-.9 10.224-9.43a1.643 1.643 0 0 1 .8-.84.792.792 0 0 0 .48-.6c0-.58-1.761-1.32-2.3-1.32a6.407 6.407 0 0 0 -1.181.58c-.24.06-1.16.16-2.181.26a8.674 8.674 0 0 1 .14-1.26 11.514 11.514 0 0 0 .34-1.3c0-.92-1.72-1.24-2.261-1.24a1.1 1.1 0 0 0 -1.14.64c0 .14.24.18.62.22.52.06 1.021.54 1.041 1.7v1.38zm18.092 8.81c7.1-4.28 9.324-9.23 9.324-9.63 0-.02 0-.04-.02-.04a1.776 1.776 0 0 0 -.6.6c-4.121 5.05-9.5 7.81-9.884 7.81a.251.251 0 0 1 -.24-.3 39.7 39.7 0 0 1 .48-5.39 1.894 1.894 0 0 0 .08-.56 2.287 2.287 0 0 0 -2.041-2.14 1.1 1.1 0 0 0 -1.04.38.781.781 0 0 0 .58.38c.62.22.96 1.06.96 3a32.246 32.246 0 0 1 -.28 3.87c-.06.52-.26.82-.26 1.1 0 .34.981 1.8 1.681 1.8.519 0 .899-.68 1.26-.88zm19.278-3.74a.75.75 0 0 0 .68-.81c0-1.1-1.66-1.84-2.521-1.84-.14 0-.2.02-.2.1a.552.552 0 0 0 .16.26 7.575 7.575 0 0 1 1.161 1.71.851.851 0 0 0 .72.58zm3.942-.77a3.044 3.044 0 0 0 .66-1.1c0-.56-1.04-1.16-1.781-1.16a.693.693 0 0 0 -.76.48.374.374 0 0 0 .38.3.4.4 0 0 1 .4.38c0 .68-2.581 5.71-6.5 7.53a.761.761 0 0 0 -.48.34.15.15 0 0 0 .14.06c.338 0 4.799-.84 7.938-6.83zm-6.323 1.71a.684.684 0 0 0 .64-.74c0-.84-1.12-1.59-2.621-1.63-.22 0-.34.02-.34.1a.532.532 0 0 0 .22.26 9.469 9.469 0 0 1 1.381 1.55.965.965 0 0 0 .72.46zm20.715-6.35a.554.554 0 0 0 .18.02 1.945 1.945 0 0 0 .54-.1 7.831 7.831 0 0 1 2.221-.48c.28 0 .361.1.361.2a.823.823 0 0 1 -.141.34c-3.061 4.83-6.322 8.63-10.744 10.49a1.285 1.285 0 0 0 -.681.42c0 .02.04.04.12.04a4.02 4.02 0 0 0 .781-.16c5.262-1.52 8.363-4.72 11.725-9.71a2.2 2.2 0 0 1 1-1.04.66.66 0 0 0 .561-.5c0-.46-1.381-1.36-1.8-1.36a.79.79 0 0 0 -.42.16 1.616 1.616 0 0 1 -.561.34c-.42.1-1.6.28-2.341.36a1.36 1.36 0 0 0 .281-.72 1.922 1.922 0 0 0 -1.881-1.46.86.86 0 0 0 -.9.58c0 .1.1.18.34.24a.613.613 0 0 1 .541.58c0 .66-2.942 4.72-5.763 6.87a1.246 1.246 0 0 0 -.46.44.078.078 0 0 0 .08.04 2.409 2.409 0 0 0 .58-.2c2.319-1.01 4.1-2.71 6.386-5.39zm19.286 5.11c.08.06.2.12.3.18a12.846 12.846 0 0 1 3.681 3.74 1.243 1.243 0 0 0 1.021.72.833.833 0 0 0 .78-.92c0-1.72-3.382-3.4-5.583-3.94a22.248 22.248 0 0 0 2.342-3.25 2.383 2.383 0 0 1 .84-.88.706.706 0 0 0 .38-.54c0-.76-1.781-1.36-2.2-1.36a5.521 5.521 0 0 0 -1.24.62 26.223 26.223 0 0 1 -4.6.72 1.193 1.193 0 0 1 -1.04-.3.385.385 0 0 0 -.28-.26c-.16 0-.3.18-.3.58 0 .7 1.44 1.46 2.261 1.46a4.068 4.068 0 0 0 1.42-.48 16.954 16.954 0 0 1 3.182-1.04c.24 0 .34.1.34.26 0 .56-4.1 7.35-10.165 9.71a1.214 1.214 0 0 0 -.64.34c0 .04.06.06.16.06a16.666 16.666 0 0 0 9.341-5.42zm28.158 5.2c.34 0 .42-.12.42-.26 0-.48-1.461-1.76-1.981-1.94a.3.3 0 0 0 -.14-.02c-.14 0-.34.04-1.321 1.5a.407.407 0 0 1 -.32.18h-4.222c0-1.26-.02-3.44-.02-5.47s.02-3.88.04-4.46c.04-.86.04-.9.4-1.06a.433.433 0 0 0 .32-.34c0-.1-.1-.2-.48-.3h5.965c.34 0 .44-.1.44-.22 0-.5-1.58-1.76-2-1.9-.04 0-.1-.02-.14-.02-.38 0-1.16 1.22-1.3 1.44a.379.379 0 0 1 -.32.18h-4.362c-1.141 0-4.882-.08-6.923-.32a1.6 1.6 0 0 0 .94 1.06h.02c1.681-.16 4.442-.22 5.663-.22.14.82.18 1.86.18 7.15 0 1.7 0 3.42-.02 4.48h-.8c-1.14 0-5.242-.06-7.243-.3a1.6 1.6 0 0 0 .96 1.04h.02c1.741-.18 5.063-.2 6.163-.2h10.065zm21.882.1c-3.761-.46-6.943-2.1-8.464-3.94h7c.34 0 .42-.12.42-.24a3.2 3.2 0 0 0 -1.9-1.57c-.06 0-.34.02-1.141 1.15a.425.425 0 0 1 -.36.18h-4.242c0-.6 0-1.18.02-1.67h4.6c.321 0 .421-.12.421-.24 0-.46-1.421-1.36-1.761-1.36a2.806 2.806 0 0 0 -1.021.96.388.388 0 0 1 -.34.18h-1.881c0-.82.02-.98.381-1.14a.578.578 0 0 0 .36-.32.188.188 0 0 0 -.12-.16h5.282c.32 0 .42-.12.42-.24a3 3 0 0 0 -1.821-1.5c-.2 0-.42.18-1.1 1.1a.376.376 0 0 1 -.34.16h-2.461a17.411 17.411 0 0 0 1.42-1.1.484.484 0 0 1 .38-.2h.14c.321 0 .521-.08.521-.24a2.866 2.866 0 0 0 -1.5-1.02h6.143c.34 0 .44-.12.44-.24 0-.58-1.561-1.72-2-1.72a4.159 4.159 0 0 0 -1.16 1.3.408.408 0 0 1 -.321.18h-2.761a23.055 23.055 0 0 0 2.4-1.96.515.515 0 0 1 .4-.22h.225c.32 0 .5-.08.5-.22 0-.34-1.8-1.46-1.9-1.46-.04 0-.04.06-.08.2a12.788 12.788 0 0 1 -1.981 3.66h-.26c0-.78.02-2.32.04-2.64.04-.66.1-.54.42-.74a.574.574 0 0 0 .34-.38c0-.38-1.761-.72-2.261-.72-.02 0-.04 0-.04.02s.02.08.04.16a13.793 13.793 0 0 1 .18 2.66v1.64h-1.52c0-.78 0-2.32.02-2.64.04-.66.12-.54.44-.74a.574.574 0 0 0 .34-.38c0-.44-2.181-.72-2.281-.72-.02 0-.02.02-.02.04a.528.528 0 0 0 .02.14 13.709 13.709 0 0 1 .2 2.66v1.64c-1.14-.04-4.422-.08-6.463-.32a1.449 1.449 0 0 0 .881 1.02h.02c1.78-.18 4.362-.22 5.462-.22h4.062a10.219 10.219 0 0 1 -1.021 2.56h-2.121a.84.84 0 0 0 .421-.74c0-1.02-1.621-1.56-2.562-1.56-.06 0-.08 0-.08.02a.763.763 0 0 0 .16.18 5.465 5.465 0 0 1 .961 1.54 1.043 1.043 0 0 0 .4.56c-1.18-.02-3.4-.08-5.1-.3a1.446 1.446 0 0 0 .86.98h.02a43.287 43.287 0 0 1 4.462-.2h1.041a14.645 14.645 0 0 1 .08 1.62h-.26a46.175 46.175 0 0 1 -5.2-.3 1.415 1.415 0 0 0 .861.96h.02a39.569 39.569 0 0 1 4.262-.2h.32v1.67h-1.141c-1.08 0-4.2-.08-6.123-.32a1.508 1.508 0 0 0 .881 1h.02c1.7-.16 4.082-.2 5.122-.2h.56a18.227 18.227 0 0 1 -7.7 5.4.563.563 0 0 0 -.4.24c0 .04.06.06.16.06a16 16 0 0 0 8.6-4.36c-.02 1.54-.08 3.08-.16 3.94v.1a.623.623 0 0 0 .68.66.915.915 0 0 0 .96-.78v-.02c-.04-.94-.1-3-.1-4.92 1.681 2.94 5.523 5.08 6.223 5.08a.352.352 0 0 0 .26-.12c.641-.64 2.361-1.1 2.361-1.28a.24.24 0 0 0 -.165-.06zm-15.187-14.93a.4.4 0 0 0 -.32.04.516.516 0 0 0 .2.22 6.465 6.465 0 0 1 1.261 1.68.933.933 0 0 0 .8.64.853.853 0 0 0 .781-.9c0-1.02-1.481-1.64-2.722-1.68zm34.1 10.19c.34 0 .42-.12.42-.24a3.931 3.931 0 0 0 -1.9-1.79.26.26 0 0 0 -.121-.02 3.819 3.819 0 0 0 -1.2 1.37.407.407 0 0 1 -.32.18h-4.842c-1.141 0-4.7-.08-6.723-.32a1.6 1.6 0 0 0 .96 1.04h.02c1.261-.12 3.021-.2 4.342-.22a30.416 30.416 0 0 1 -.94 4.44c-1.621.1-2 .1-2.181.1a14.608 14.608 0 0 1 -1.661-.12.563.563 0 0 0 -.16-.02.033.033 0 0 0 -.04.04c0 .18 1.1 2.12 1.44 2.12.2 0 .341-.26.621-.32a94.376 94.376 0 0 0 9.284-2.14 10.355 10.355 0 0 1 .98 1.46 1.215 1.215 0 0 0 .981.76.935.935 0 0 0 .84-1.02c0-2.1-5.122-3.8-5.242-3.8a.043.043 0 0 0 -.04.04.559.559 0 0 0 .2.22 21.889 21.889 0 0 1 1.921 1.92c-1.661.26-3.942.54-6.3.72.66-.98 1.5-2.54 2-3.48a.783.783 0 0 1 .42-.42.53.53 0 0 0 .42-.32.263.263 0 0 0 -.16-.18h6.983zm-6.683-9.45c2.121 4.24 6.123 7.2 6.823 7.2a.4.4 0 0 0 .28-.12c.621-.62 2.381-.9 2.381-1.08a.159.159 0 0 0 -.14-.08 18.64 18.64 0 0 1 -9-6.06c.04 0 .06-.02.1-.02a.623.623 0 0 0 .6-.36c0-.48-2.4-1.36-2.5-1.36-.061 0-.041.04-.061.14a5.488 5.488 0 0 1 -.46 1.44 23.572 23.572 0 0 1 -7.4 8.2.813.813 0 0 0 -.36.3.05.05 0 0 0 .06.04c.56 0 5.742-2.18 9.484-8zm3.042 6.22c.3 0 .38-.12.38-.24a4.048 4.048 0 0 0 -1.7-1.68.15.15 0 0 0 -.1-.02 4.313 4.313 0 0 0 -1 1.28.386.386 0 0 1 -.24.16h-.7a36.882 36.882 0 0 1 -4.182-.28 1.546 1.546 0 0 0 .841.96h.02c1.08-.12 2.621-.18 3.281-.18zm24.743-7.64a1.256 1.256 0 0 0 -.62.58.429.429 0 0 1 -.3.18h-2.766a.2.2 0 0 0 -.1-.08 7.51 7.51 0 0 0 -1.961-.84.053.053 0 0 0 -.06.06c0 .04.02.06.02.12a16.8 16.8 0 0 1 .221 3.22c0 .68-.02 1.56-.141 2.88v.08a.613.613 0 0 0 .661.64.772.772 0 0 0 .88-.74v-.06h3.722c.02 1.64.04 3.48.04 5.11 0 1.6-.02 3-.04 3.78-.02.74-.44 1.02-1.381 1.02a9.648 9.648 0 0 1 -1.38-.12.759.759 0 0 0 .36-.68c0-1.2-2.221-1.84-3.542-2.02a6.011 6.011 0 0 0 .14-.64h4.142c.28 0 .38-.12.38-.24a2.772 2.772 0 0 0 -1.48-1.36.866.866 0 0 0 -.1-.02 1.922 1.922 0 0 0 -.841.98.28.28 0 0 1 -.22.16h-1.821v-.38c0-.3.02-.32.02-.48 0-.36.06-.34.18-.42a.464.464 0 0 0 .26-.28c0-.02 0-.12-.36-.2h3.522c.28 0 .36-.1.36-.22a2.455 2.455 0 0 0 -1.341-1.29.12.12 0 0 0 -.08-.02.323.323 0 0 0 -.18.06 3.887 3.887 0 0 0 -.64.82.286.286 0 0 1 -.2.18h-1.5c.521-.42 1.221-1.06 1.561-1.38a.45.45 0 0 1 .4-.18c.34 0 .48-.1.48-.24 0-.38-1.64-1.14-1.76-1.14-.04 0-.04.06-.06.18a10.266 10.266 0 0 1 -1.081 2.76h-.32a32.7 32.7 0 0 1 -3.762-.28 1.408 1.408 0 0 0 .781.93h.02c.66-.08 1.66-.14 2.4-.16.02.26.04.48.04.78 0 .16.02.22.02.42a4.9 4.9 0 0 1 -.04.54 27.252 27.252 0 0 1 -3.7-.28 1.441 1.441 0 0 0 .84.96h.02c.941-.1 1.961-.2 2.782-.2a4.8 4.8 0 0 1 -4 3.78.584.584 0 0 0 -.4.18c0 .04.08.08.28.08 1.921 0 4.362-.88 5.182-3.22a7.747 7.747 0 0 1 2.181 2.06 1.111 1.111 0 0 0 .28.32.689.689 0 0 0 -.18-.02c-.04 0-.04 0-.04.02 0 .1 2.041.88 2.4 1.5a.5.5 0 0 0 .48.34 2.423 2.423 0 0 0 2.442-2.38v-.04c0-.3-.04-1.3-.06-1.74-.041-1.9-.1-6.21-.1-8.93 0-2.52 0-2.56.361-2.76a.746.746 0 0 0 .46-.48c-.004-.38-1.505-1.2-1.765-1.2zm-8.764 0a1.256 1.256 0 0 0 -.62.58.389.389 0 0 1 -.28.18h-2.441l-.1-.08a8.326 8.326 0 0 0 -2.021-.88.066.066 0 0 0 -.08.08c0 .04.02.06.02.12a19.6 19.6 0 0 1 .24 2.62c0 .86.02 1.96.02 3.18 0 3.54-.06 8.11-.26 11.11v.08a.639.639 0 0 0 .7.66.919.919 0 0 0 .98-.8c-.04-1.84-.06-5.42-.06-8.69v-2.12h3.4v.18a.582.582 0 0 0 .64.62.812.812 0 0 0 .881-.8v-.04c-.04-.62-.141-2.48-.141-3.4 0-.6.041-.78.321-.92a.725.725 0 0 0 .46-.46 3.066 3.066 0 0 0 -1.663-1.22zm8.324 5.52h-3.746c-.02-.68-.02-1.34-.02-1.92h3.742c0 .58.02 1.22.02 1.92zm-.04-2.44h-3.726c0-1.52 0-1.62.24-1.74l.1-.06h3.082c.24 0 .26.16.26.32.02.28.02.8.04 1.48zm-8.744.52c0 .7-.02 1.38-.04 1.92h-3.4c0-.7.02-1.34.02-1.92h3.422zm0-.52h-3.422c0-1.6.04-1.62.381-1.8h2.741a.247.247 0 0 1 .26.28c.016.4.036.94.036 1.52zm-.3 4.14a.308.308 0 0 0 -.28.06.376.376 0 0 0 .16.18 5.432 5.432 0 0 1 1.18 1.4.857.857 0 0 0 .721.56.734.734 0 0 0 .68-.76c-.004-1.02-1.705-1.44-2.465-1.44zm33.895 8.05a14.1 14.1 0 0 1 -8.784-4.74h3.1l-.02.44v.02a.593.593 0 0 0 .66.6.787.787 0 0 0 .9-.74v-.04c-.08-1.15-.161-2.81-.161-3.85 0-.22.021-.42.021-.58.02-.46.06-.42.44-.66a.738.738 0 0 0 .42-.46c0-.38-1.481-1.24-1.761-1.24a.4.4 0 0 0 -.24.12 5.523 5.523 0 0 0 -.42.5.293.293 0 0 1 -.26.12h-2.862l.04-1.98h7.144c.34 0 .44-.12.44-.24a4.057 4.057 0 0 0 -1.861-1.8.254.254 0 0 0 -.12-.02c-.1 0-.32.02-1.241 1.38a.415.415 0 0 1 -.34.18h-4l.04-.78c.04-.7.12-.62.461-.82a.622.622 0 0 0 .4-.44c0-.52-2.4-.82-2.541-.82a.033.033 0 0 0 -.04.04.45.45 0 0 0 .02.14 18.507 18.507 0 0 1 .2 2.68h-.942c-1.16 0-4.582-.08-6.643-.32a1.538 1.538 0 0 0 .921 1.04h.02c1.781-.18 4.5-.22 5.622-.22h1.041l.04 1.98h-2.681a.02.02 0 0 0 -.02-.02h-.02a10.357 10.357 0 0 0 -2.041-.92.043.043 0 0 0 -.04.04c0 .04.02.06.02.12a16.266 16.266 0 0 1 .24 2.38v.68c0 1.06-.04 2.64-.16 4.21v.06a.577.577 0 0 0 .64.6.853.853 0 0 0 .92-.72v-.02c0-.2-.02-.4-.02-.64h2.761a20.385 20.385 0 0 1 -8.144 6.2 1 1 0 0 0 -.46.26.093.093 0 0 0 .1.04 15.9 15.9 0 0 0 8.864-4.7c-.04 1.56-.1 3.12-.2 4.58v.08a.655.655 0 0 0 .72.7.966.966 0 0 0 1-.82v-.02c-.06-1.86-.12-3.94-.14-5.98 1.841 3.5 5.763 5.76 6.383 5.76a.34.34 0 0 0 .26-.12c.581-.58 2.481-1 2.481-1.18a.24.24 0 0 0 -.164-.06zm-5.662-7.51c0 .74-.02 1.54-.02 2.27h-3.3v-2.27h3.322zm-4.6 0c0 .74 0 1.5-.02 2.27h-3.182c0-.73-.02-1.55-.02-2.27zm4.6-.5h-3.322v-1.98h3.042a.223.223 0 0 1 .26.22c.016.42.016 1.06.016 1.76zm-4.6 0h-3.222c0-1.7.02-1.74.28-1.9a.841.841 0 0 0 .141-.08h2.781c-.006.64.014 1.28.014 1.98zm-218.234 41.49c.476 0 .588-.17.588-.34a5.5 5.5 0 0 0 -2.659-2.49.334.334 0 0 0 -.168-.03c-.448 0-1.484 1.57-1.68 1.91a.568.568 0 0 1 -.448.25h-6.774c-1.595 0-6.578-.11-9.4-.45a2.228 2.228 0 0 0 1.344 1.46h.028c1.763-.17 4.227-.28 6.074-.31a42.384 42.384 0 0 1 -1.316 6.21c-2.267.14-2.8.14-3.051.14a20.634 20.634 0 0 1 -2.323-.16.738.738 0 0 0 -.224-.03c-.028 0-.056 0-.056.05 0 .26 1.54 2.97 2.016 2.97.279 0 .475-.36.867-.45a131.341 131.341 0 0 0 12.988-2.99 14.466 14.466 0 0 1 1.372 2.04 1.7 1.7 0 0 0 1.371 1.07 1.313 1.313 0 0 0 1.176-1.43c0-2.94-7.166-5.32-7.334-5.32a.062.062 0 0 0 -.056.06.829.829 0 0 0 .28.3 31.727 31.727 0 0 1 2.687 2.69c-2.323.36-5.514.76-8.817 1.01.924-1.37 2.1-3.56 2.8-4.87a1.087 1.087 0 0 1 .588-.59.732.732 0 0 0 .588-.45.366.366 0 0 0 -.224-.25h9.769zm-9.349-13.21c2.967 5.93 8.565 10.08 9.545 10.08a.564.564 0 0 0 .392-.17c.868-.87 3.331-1.26 3.331-1.51a.223.223 0 0 0 -.2-.12c-5.486-1.37-10.3-5.65-12.6-8.48.056 0 .084-.03.14-.03a.861.861 0 0 0 .839-.5c0-.67-3.359-1.9-3.5-1.9-.083 0-.055.05-.083.19a7.686 7.686 0 0 1 -.644 2.02 32.966 32.966 0 0 1 -10.357 11.47 1.232 1.232 0 0 0 -.5.42.071.071 0 0 0 .084.06c.784 0 8.034-3.05 13.268-11.2zm4.255 8.7c.419 0 .531-.16.531-.33 0-.59-1.707-2.05-2.379-2.35a.2.2 0 0 0 -.14-.03c-.364 0-1.4 1.79-1.4 1.79a.53.53 0 0 1 -.336.22h-.98a51.453 51.453 0 0 1 -5.85-.39 2.163 2.163 0 0 0 1.175 1.35h.028c1.512-.17 3.667-.26 4.591-.26h4.759zm37.319 2.07c.475 0 .615-.16.615-.33 0-.56-1.595-2.04-2.547-2.38a.334.334 0 0 0 -.168-.03c-.084 0-.476 0-1.679 1.79a.632.632 0 0 1 -.476.26h-12.07v-2.94h11c.364 0 .476-.12.476-.26 0-.56-1.959-2.24-2.6-2.24-.364 0-1.344 1.32-1.512 1.54a.529.529 0 0 1 -.419.26h-6.942v-2.89h10.832c.448 0 .588-.16.588-.33 0-.73-2.183-2.16-2.547-2.16s-1.288 1.26-1.512 1.57a.518.518 0 0 1 -.419.25h-6.914c.084-2.38.084-2.41.587-2.69l.364-.22h11.757c.448 0 .588-.17.588-.34 0-.5-1.54-1.98-2.464-2.32a.334.334 0 0 0 -.168-.03c-.448 0-1.483 1.54-1.6 1.74a.568.568 0 0 1 -.448.25h-7.642a9.43 9.43 0 0 0 -3.247-1.23c-.056 0-.084 0-.084.08a.666.666 0 0 0 .028.2 33.592 33.592 0 0 1 .308 6.16c0 1.82-.028 4.08-.028 5.54-2.1-.06-4.422-.17-5.934-.36a2.13 2.13 0 0 0 1.26 1.42h.028c1.175-.11 2.883-.17 4.506-.22.028.42.112 1.4.112 8.51a18.472 18.472 0 0 1 -5.01.61c-.112 0-.2 0-.2.06 0 .17 1.567 2.77 2.071 2.77a2.3 2.3 0 0 0 .616-.47c5.6-1.96 10.469-4.4 11.029-4.96 3.667 4.28 7.585 4.84 7.753 4.84a.578.578 0 0 0 .476-.25c.728-.89 3.415-1.71 3.415-1.96 0-.03-.056-.05-.2-.05a17.3 17.3 0 0 1 -10.693-4.15 44.069 44.069 0 0 0 4.479-1.51 1.725 1.725 0 0 1 .532-.11 1.384 1.384 0 0 1 .336.03 2.55 2.55 0 0 0 .42.05c.419 0 .643-.16.643-.39 0-.67-2.351-2.55-2.659-2.55-.084 0-.084.06-.14.2-.42.98-1.511 2.13-4.142 3.81a16.691 16.691 0 0 1 -3.275-4.57h12.9zm-10.469 6.5c-1.708.59-3.835 1.17-5.878 1.65 0-5.93 0-6.13.028-6.49.028-.68.084-.68.42-.87a.7.7 0 0 0 .447-.48.327.327 0 0 0 -.2-.28c.588 0 1.064-.03 1.4-.03h.868a17.59 17.59 0 0 0 3.331 6.39zm54.854 1.26c-.028-.48-.056-1.18-.056-1.74l-.084-6.99a11.769 11.769 0 0 0 6.326-3.48 6.958 6.958 0 0 1 2.183 2.22.526.526 0 0 0 .56.36h.112c3.387 0 4.338-2.58 4.87-5.88a.487.487 0 0 1 .392-.45.989.989 0 0 0 .7-.64c0-.48-1.456-1.32-1.847-1.46a.9.9 0 0 0 -.168-.05c-.084 0-.14 0-.812.78a.649.649 0 0 1 -.5.14h-2.977c.112-.45.2-.92.28-1.43a.834.834 0 0 1 .56-.75.813.813 0 0 0 .615-.53c0-.59-2.6-.96-3-.96-.056 0-.056.03-.056.09v.14a6.988 6.988 0 0 1 .028.78 12.584 12.584 0 0 1 -.308 2.61c-1.623-.06-3.526-.17-4.842-.34a2.023 2.023 0 0 0 1.148 1.34h.028c.783-.08 2.155-.11 3.443-.16a11.3 11.3 0 0 1 -6.215 7.22 2.017 2.017 0 0 0 -.531.33c0-1.4-.028-2.77-.028-4.03 0-4.39 0-4.5.5-4.78a1.089 1.089 0 0 0 .644-.73c0-.56-1.987-1.57-2.183-1.57a2.29 2.29 0 0 0 -.812.9.437.437 0 0 1 -.364.19h-1.679v-.03h-.028a10.7 10.7 0 0 0 -2.659-1.12.077.077 0 0 0 -.084.09.522.522 0 0 0 .028.19 73.971 73.971 0 0 1 .5 10.33v.42c0 4.71-.476 10.19-2.576 12.6a1.449 1.449 0 0 0 -.364.59c0 .03 0 .05.056.05.084 0 3.975-1.65 4.591-10.94h2.715c0 2.6-.056 4.98-.084 6.41-.028.7-.2 1.23-1.595 1.23a11 11 0 0 1 -1.988-.22.9.9 0 0 0 -.252-.03.074.074 0 0 0 -.084.05c0 .23 2.212 1.35 2.492 1.94a.517.517 0 0 0 .5.39 2.973 2.973 0 0 0 2.884-2.91v-.17zm13.295-6.41c-.195 0-.419-.03-.615-.03l.084-.64c.084-.73.084-.7.531-.96a.639.639 0 0 0 .392-.44c0-.56-2.267-.98-2.575-.98a.093.093 0 0 0 -.112.11v.11a15.269 15.269 0 0 1 .084 1.62c0 .31 0 .62-.028.96v.16c-.7-.05-1.511-.16-2.463-.3a2.028 2.028 0 0 0 1.12 1.31h.028c.447-.05.867-.08 1.231-.11-.42 3.56-1.847 7.36-4.087 9.29a.986.986 0 0 0 -.363.45.1.1 0 0 0 .112.09 7.173 7.173 0 0 0 3.135-2.52 4.718 4.718 0 0 1 1.427 1.54.712.712 0 0 0 .784.36 3.394 3.394 0 0 0 3.163-2.41c.56-1.37.56-3.89.7-5.76a.6.6 0 0 1 .476-.73.687.687 0 0 0 .5-.59c0-.62-1.819-1.46-1.931-1.46a1.8 1.8 0 0 0 -.672.7.37.37 0 0 1 -.336.23h-.591zm-8.593 0 .056-.67c.056-.73.056-.7.5-.96a.668.668 0 0 0 .392-.41c0-.56-2.323-1.01-2.6-1.01-.084 0-.112.03-.112.08 0 .03.028.09.028.14a14.669 14.669 0 0 1 .112 1.93v.65c0 .05-.028.14-.028.19-.812-.05-1.736-.14-3-.33a1.987 1.987 0 0 0 1.091 1.31h.028c.7-.08 1.26-.11 1.82-.17-.336 3.59-1.848 7.45-4.115 9.35a.856.856 0 0 0 -.364.45c0 .06.028.09.112.09.56 0 2.379-1.52 3.219-2.55a4.426 4.426 0 0 1 1.344 1.48.614.614 0 0 0 .7.37 3.361 3.361 0 0 0 3.135-2.41c.56-1.37.532-3.81.672-5.68a.633.633 0 0 1 .532-.73.687.687 0 0 0 .5-.59c0-.56-1.764-1.46-1.9-1.46a1.805 1.805 0 0 0 -.671.7.332.332 0 0 1 -.308.23h-1.148zm7.138-10.08a.257.257 0 0 1 .252.28c0 .34-.168 4.59-2.743 4.59a11.273 11.273 0 0 1 -3.051-.7 10.814 10.814 0 0 0 2.239-4.14c.308 0 .588-.03.784-.03zm2.127 10.78c.224 0 .224.05.224.31-.14 4.17-.252 7.22-2.435 7.22a5.3 5.3 0 0 1 -1.763-.42 15.8 15.8 0 0 0 2.6-7.11c.224 0 .448-.03.671-.03zm-8.061 0c.224 0 .224.05.224.31-.056 1.7.028 4.36-.644 5.87a1.779 1.779 0 0 1 -1.708 1.26 5.291 5.291 0 0 1 -1.679-.39 15.26 15.26 0 0 0 2.519-7.08h.056zm-10.441-7.22c0-1.35-.028-2.72-.028-3.75v-.65a.794.794 0 0 1 .308-.7.805.805 0 0 1 .168-.11h1.819a.289.289 0 0 1 .336.31c.028.92.028 2.74.028 4.9h-2.637zm0 5.54c.028-.56.028-1.12.028-1.65v-3.19h2.6c0 1.54.028 3.22.028 4.84h-2.662zm47.633-13.07c-.111 0-.335.02-1.063.95a.637.637 0 0 1 -.448.28h-15.737l-.168-.11a12.877 12.877 0 0 0 -3.107-1.35.075.075 0 0 0 -.056.09.613.613 0 0 0 .028.19 29.977 29.977 0 0 1 .364 4.31v2.02c0 4.73-.084 13.41-.336 17.07v.12a.9.9 0 0 0 .98.95 1.311 1.311 0 0 0 1.4-1.15c0-.31-.028-.64-.028-1.04h17.411v1.12a.949.949 0 0 0 1.035.98 1.27 1.27 0 0 0 1.344-1.17v-.09c-.14-2.96-.336-12.14-.336-16.9 0-3.19 0-3.33.476-3.56a1.158 1.158 0 0 0 .868-.78c-.001-.56-2.073-1.93-2.633-1.93zm-.727 21.61h-17.445c0-5.71.084-16.29.14-18.45a1.031 1.031 0 0 1 .7-1.2h16.039a.413.413 0 0 1 .42.44c.112 2.47.14 9.19.14 14.78v4.43zm-3.807-8.04v-.08c-.14-1.26-.14-1.43-.14-1.54a.693.693 0 0 1 .476-.78.838.838 0 0 0 .5-.54c0-.42-1.764-1.48-2.156-1.48a1.812 1.812 0 0 0 -.783.76.424.424 0 0 1 -.336.19h-5.375a9.071 9.071 0 0 0 -2.407-1.03.1.1 0 0 0 -.112.11.56.56 0 0 1 .028.11 12.652 12.652 0 0 1 .224 2.07 21.956 21.956 0 0 1 -.168 2.74v.14a.713.713 0 0 0 .812.73 1.079 1.079 0 0 0 1.119-.89v-.34h1.624a15.83 15.83 0 0 1 -6.27 5.57.659.659 0 0 0 -.448.34c0 .05.056.08.168.08a14.717 14.717 0 0 0 6.914-3.83c0 .14.028.3.028.47v.28c0 .9-.084 2.32-.2 3.47v.09a.758.758 0 0 0 .868.72 1.075 1.075 0 0 0 1.147-.86v-.03c-.056-1.01-.084-1.93-.084-2.8v-.56a13.818 13.818 0 0 1 4.255 2.69 2.073 2.073 0 0 0 1.372.72.929.929 0 0 0 .951-.98c0-.58-.42-1.67-3.723-2.35a14.838 14.838 0 0 0 1.652-.78.547.547 0 0 1 .28-.11.9.9 0 0 1 .252.03.961.961 0 0 0 .224.02.4.4 0 0 0 .476-.28c0-.36-1.4-1.31-1.568-1.42a.819.819 0 0 0 .394-.65zm.728-7.28a3.069 3.069 0 0 0 -1.232 1.21.471.471 0 0 1 -.364.22h-3.219c0-.53 0-1.26.028-1.96h4.591c.448 0 .588-.19.588-.36 0-.7-1.96-1.74-2.156-1.74a3.44 3.44 0 0 0 -1.175 1.21.471.471 0 0 1 -.364.22h-1.49c0-.81.14-.98.392-1.09a.849.849 0 0 0 .588-.59c0-.56-2.8-.78-2.967-.78-.14 0-.168.03-.168.11a.363.363 0 0 0 .028.17 7.849 7.849 0 0 1 .308 2.18c-1.456-.03-3.611-.14-5.4-.36v.03a1.77 1.77 0 0 0 1.12 1.23h.028a39.2 39.2 0 0 1 4.283-.23v1.96h-.732a51.465 51.465 0 0 1 -6.046-.39v.03a1.775 1.775 0 0 0 1.091 1.26h.028a43.057 43.057 0 0 1 4.815-.25h8.985c.448 0 .56-.17.56-.34.001-.62-1.706-1.74-2.126-1.74zm-2.632 6.78h-6.438c0-1.9 0-1.9.392-2.13.084-.05.112-.11.168-.14h5.515a.324.324 0 0 1 .335.34c.028.45.028.87.028 1.31zm.84 1.34a9.772 9.772 0 0 1 -1.287 2.24 19.527 19.527 0 0 0 -2.212-.28v-.08c.028-.45 0-.53.392-.73a.566.566 0 0 0 .336-.39c0-.2-.224-.31-1.316-.48a.843.843 0 0 1 .616-.42.558.558 0 0 0 .5-.36.254.254 0 0 0 -.14-.17h2.239a.784.784 0 0 0 .866.67zm16.437 9.52a5.365 5.365 0 0 0 4.983-3.44c.9-2.1.9-5.38.951-6.19.056-.62.028-.81.588-1.04a.712.712 0 0 0 .588-.56c0-.64-1.847-1.56-2.183-1.7a.818.818 0 0 0 -.224-.06 1.513 1.513 0 0 0 -.756.67.558.558 0 0 1 -.5.23h-3.667c.168-1.21.336-2.47.448-3.03.2-1.09.168-1.03.784-1.26l.112-.05h2.967l-.028.45v.02a.777.777 0 0 0 .84.82 1.29 1.29 0 0 0 1.315-1.15v-.03c-.112-1.18-.2-3.02-.2-3.89a.838.838 0 0 1 .56-1.01.951.951 0 0 0 .616-.64c0-.53-2.071-1.63-2.407-1.63a1.858 1.858 0 0 0 -.952.84.413.413 0 0 1 -.364.17h-.84a36.339 36.339 0 0 1 -5.01-.36 2.243 2.243 0 0 0 1.148 1.31c1.231-.16 3.3-.22 3.806-.22h1.148a.313.313 0 0 1 .364.36c.028.42.028.96.028 1.54 0 .82 0 1.77-.028 2.69h-2.8a8.019 8.019 0 0 0 -2.715-1.06s-.056 0-.056.25a32.243 32.243 0 0 1 -1.176 7.78.763.763 0 0 0 -.028.25.654.654 0 0 0 .784.59 1.367 1.367 0 0 0 1.427-.9c.028-.33.084-.67.14-1.09h3.947c.392 0 .392.14.392.39-.168 4.15-.42 8.71-3.723 8.71a11.684 11.684 0 0 1 -3.023-.56 1.339 1.339 0 0 0 -.252-.06.071.071 0 0 0 -.084.06c0 .22 2.044 1.57 2.407 2.41a.67.67 0 0 0 .588.39h.084zm17.971-3.78a11.883 11.883 0 0 1 .364 1.54c.2 1.29.811 1.79 1.4 1.79a1.575 1.575 0 0 0 1.344-1.73c0-2.8-5.1-7.67-5.794-7.67-.028 0-.028.02-.028.05a.6.6 0 0 0 .14.34 26.32 26.32 0 0 1 2.379 5.06c-2.044.37-4.787.73-7.474.96 1.456-4.12 3.3-12.32 4.339-16.57a.714.714 0 0 1 .616-.68.871.871 0 0 0 .783-.58c0-.76-3.583-1.6-3.974-1.6a.048.048 0 0 0 -.056.06c0 .08.028.16.028.3 0 .2.028.59.028 1.04 0 4.28-1.764 14.16-2.632 18.08-1.735.09-1.763.09-1.819.09a13.186 13.186 0 0 1 -1.959-.17.93.93 0 0 1 -.168-.03c-.028 0-.028 0-.028.03 0 .28 1.259 2.97 1.679 2.97a5.284 5.284 0 0 0 .644-.4 97.462 97.462 0 0 0 10.182-2.88zm22.553 1.54c0-.67-.084-2.38-.112-3.02-.028-1.46-.056-2.97-.056-4.43 1.792 6.67 6.13 9.33 6.522 9.33a.741.741 0 0 0 .42-.2c1.008-.78 3.3-1.04 3.3-1.23a.294.294 0 0 0 -.252-.11 13.82 13.82 0 0 1 -7.082-3.98c1.344-.39 2.772-.98 3.443-1.2a1.574 1.574 0 0 1 .336-.06 1.332 1.332 0 0 1 .364.06 2.534 2.534 0 0 0 .448.05c.336 0 .5-.11.5-.3 0-.59-2.072-2.24-2.239-2.24a.206.206 0 0 0 -.14.16c-.56 1.32-2.772 2.86-3.107 3.11a15.17 15.17 0 0 1 -2.212-3.53h3.359v.03a.791.791 0 0 0 .868.81 1.139 1.139 0 0 0 1.2-1.03v-.03l-.168-3.25h3.834c.476 0 .616-.16.616-.33 0-.76-1.931-2.13-2.211-2.13a3.9 3.9 0 0 0 -1.26 1.54.471.471 0 0 1 -.364.22h-.643v-.98a.8.8 0 0 1 .5-.92 1 1 0 0 0 .588-.67c0-.67-1.931-1.65-2.267-1.65-.14 0-.252.03-.868.86a.4.4 0 0 1 -.336.17h-3.079v-.25c.056-.87.056-.78.532-1.01a.9.9 0 0 0 .588-.5c0-.53-2.771-.87-3.135-.87-.14 0-.168.03-.168.09a.324.324 0 0 0 .028.16 17.115 17.115 0 0 1 .224 2.35c-1.708-.02-3.947-.14-5.682-.33a1.968 1.968 0 0 0 1.315 1.29h.028c1.344-.14 3.023-.2 4.367-.23.028.67.056 1.51.056 2.49a60.577 60.577 0 0 1 -7.446-.39 2.117 2.117 0 0 0 1.316 1.37h.028c2.351-.19 4.562-.28 6.1-.28 0 .87.028 1.79.028 2.75-1.736-.03-4.059-.14-5.962-.37a2.07 2.07 0 0 0 1.343 1.35h.028c1.4-.14 3.163-.23 4.591-.26 0 1.43 0 2.89-.028 4.23l-.168.09a34.509 34.509 0 0 1 -8.313 2.51c-.14.03-.224.03-.224.12 0 .14 1.511 2.18 2.015 2.18a1.8 1.8 0 0 0 .476-.48 56.109 56.109 0 0 0 6.186-3.97l.028-.03c0 .95-.028 1.88-.056 2.63-.028.73-.476 1.07-1.54 1.07a13.118 13.118 0 0 1 -2.519-.34.738.738 0 0 0 -.224-.03c-.056 0-.084 0-.084.03 0 .22 2.3 1.46 2.715 2.16a.588.588 0 0 0 .588.39c.224 0 3.051-.28 3.051-2.91v-.06zm9.209-17.72c.476 0 .588-.17.588-.33 0-.62-1.819-2.08-2.519-2.33a.334.334 0 0 0 -.168-.03c-.28 0-.336 0-1.567 1.74a.568.568 0 0 1 -.448.25h-5.577c0-.42 0-1.01.028-1.23a.865.865 0 0 1 .7-.98.812.812 0 0 0 .532-.56c0-.56-3-1.12-3.639-1.12-.028 0-.056 0-.056.03a1.331 1.331 0 0 0 .056.22 11.64 11.64 0 0 1 .308 2.77v.87h-6.074l-.2-.14a12.931 12.931 0 0 0 -3.247-1.34c-.056 0-.056.03-.056.05a.8.8 0 0 0 .028.23 43.725 43.725 0 0 1 .588 7.98c0 5.01-.616 10.35-3.387 13.46a1.738 1.738 0 0 0 -.476.7.062.062 0 0 0 .056.06 2.23 2.23 0 0 0 .84-.51c4.506-3.53 5.094-9.99 5.094-15.67 0-.84 0-1.68-.028-2.47v-.72c0-.48.028-.51.672-.93h17.942zm-5.654 6.66c0 1.01-.028 2.05-.028 2.77h-3.7v-2.77h3.723zm-.392-3.19a.319.319 0 0 1 .364.34c.028.36.028 1.17.028 2.15h-3.723c0-.89.028-1.73.056-2.49zm-8.061 10.86a1.087 1.087 0 0 0 1.035-1.12c0-1.51-2.435-2.01-4-2.01a2.232 2.232 0 0 0 -.588.05.729.729 0 0 0 .308.26 9.269 9.269 0 0 1 2.127 2.1 1.415 1.415 0 0 0 1.112.72z" fill="#0064b3" fill-rule="evenodd" transform="translate(-320.312 -1517.03)"/></svg>