<svg height="38.53" viewBox="0 0 472.531 38.53" width="472.531" xmlns="http://www.w3.org/2000/svg"><path d="m466.928 1059.77-.84 7.22h4.112l.882-7.22h3.906l-.966 7.22h4.158l.882-7.22h3.654v-4.5h-3.016l.924-8.06h3.57v-4.5h-2.9l.8-6.38h-4.158l-.8 6.38h-3.822l.756-6.38h-4.16l-.756 6.38h-3.738v4.5h3.066l-.882 8.06h-3.654v4.5zm8.652-4.5h-3.864l.924-8.06h3.86zm38.191 14.28a6.911 6.911 0 0 0 6.51-5.21l1.428-6.34-3.99-.88-1.428 6.3a2.962 2.962 0 0 1 -2.52 2.02h-3.99a1.584 1.584 0 0 1 -1.638-1.64v-14.37h8.148v-4.11h-8.148v-3.4h8.148v-4.08h-8.148v-3.06h-4.116v3.06h-2.436v4.08h2.436v3.4h-2.436v4.11h2.436v14.37q.461 5.25 5.754 5.75zm38.543-6.13a2.959 2.959 0 0 1 -2.52 2.02h-4.41a1.585 1.585 0 0 1 -1.638-1.64v-29.02h-4.074v29.02q.42 5.25 5.712 5.75h4.41a6.91 6.91 0 0 0 6.51-5.21l1.428-6.34-3.948-.88zm33.705 6.13a6.91 6.91 0 0 0 6.51-5.21l1.428-6.34-3.99-.88-1.428 6.3a2.959 2.959 0 0 1 -2.52 2.02h-3.99a1.585 1.585 0 0 1 -1.638-1.64v-14.37h8.148v-4.11h-8.148v-3.4h8.148v-4.08h-8.148v-3.06h-4.116v3.06h-2.436v4.08h2.436v3.4h-2.436v4.11h2.436v14.37q.462 5.25 5.754 5.75zm29.077-17.03a9.97 9.97 0 0 1 .5 3.21 6.932 6.932 0 0 1 -.294 2.54 1.169 1.169 0 0 1 -1.176.61h-.42v-10.2q.886 2.355 1.394 3.84zm-1.386-4.81v-9.7h2.352q-1.134 5.13-2.352 9.7zm14.868-15.45h-4.326v5.41h-4.41v-3.86h-10.122v36.96h3.99v-11.59l.252 4.03h1.05a3.8 3.8 0 0 0 3.36-1.51 8.733 8.733 0 0 0 1.05-4.87 19.368 19.368 0 0 0 -2.268-8.95q.8-2.22 1.68-5.46h3.066a104 104 0 0 1 -.525 11.95 25.67 25.67 0 0 1 -1.7 6.97 19.531 19.531 0 0 1 -3.822 5.52l3.108 3.87a24.191 24.191 0 0 0 4.851-7.73 40.381 40.381 0 0 0 2.079-10.63h4.956c-.056 3.59-.175 6.3-.357 8.15a14.36 14.36 0 0 1 -.63 3.57 1.13 1.13 0 0 1 -1.029.8 39.109 39.109 0 0 1 -4.452-.42l.168 5.04a48.3 48.3 0 0 0 5.376.42 4.078 4.078 0 0 0 2.52-.67 5.856 5.856 0 0 0 1.533-3.03 33.061 33.061 0 0 0 .882-6.72q.231-4.365.231-11.92h-8.946c.056-1.6.084-3.32.084-5.17h10.332v-4.75h-7.98v-5.41zm41.639 19.69a50.493 50.493 0 0 0 6.636-10.16l-3.066-3.15a70.871 70.871 0 0 1 -5.754 8.86 68.381 68.381 0 0 1 -2.268-7.81v-6.85h-4.284v31.21a6.145 6.145 0 0 1 -.126 1.7 1.143 1.143 0 0 1 -1.008.27q-.756 0-4.2-.21l.21 4.75q3.864.21 4.746.21a13.322 13.322 0 0 0 2.478-.17 2.354 2.354 0 0 0 1.386-.94 3.763 3.763 0 0 0 .693-1.98c.07-.8.105-2.05.105-3.76v-12.81a42.912 42.912 0 0 0 9.03 16.13l2.73-4.16a43.441 43.441 0 0 1 -7.308-11.13zm-13.608-6.09a40.11 40.11 0 0 1 -3 8.99 28.31 28.31 0 0 1 -4.725 7.39l2.436 4.46a31.886 31.886 0 0 0 5.964-9.31 44.193 44.193 0 0 0 3.234-11.53v-4.78h-10.5v4.78h6.594zm52.693 9.75 3.528 2.06 1.6-2.61a11.342 11.342 0 0 0 .63-7.85l-3.024-9.7-3.948 1.21 3.024 9.75a6.709 6.709 0 0 1 -.21 4.49zm-18.732 12.3 3.822 1.6 1.89-4.66a24.917 24.917 0 0 0 1.512-7.86v-11.17h2.788a1.628 1.628 0 0 1 1.664 1.64v16.3a1.6 1.6 0 0 1 -1.008 1.63h-3.108v4.12h3.108c3.22-.48 4.928-2.39 5.124-5.75v-16.3q-.5-5.25-5.754-5.75h-2.814v-6.98h-4.116v6.98h-2.352v4.11h2.352v11.17a20.717 20.717 0 0 1 -1.218 6.3zm20.538-30.87v-3.44h-3.444v3.44zm5.25 0v-3.44h-3.528v3.44zm21.605 5.13v-.17h4.62v-4.07h-4.62v-3.24h-4.116v3.24h-2.6v4.07h2.6v.17a29.179 29.179 0 0 1 -1.092 6.55l-3.066 9.45 3.906 1.3 3.066-9.45a32.188 32.188 0 0 0 1.3-7.85zm15.792 2.48v-4.12h-6.678v4.12zm-5.082 12.22v-7.39h-4.073v7.39h-1.848q-5.292.5-5.754 5.75v1.05q.462 5.25 5.754 5.76h.21q5.208-.51 5.712-5.76v-2.69a1.371 1.371 0 0 1 1.3.97v3.02h4.074v-3.02a4.821 4.821 0 0 0 -1.848-3.74 6.219 6.219 0 0 0 -3.528-1.34zm-5.712 8.44h-.21a1.579 1.579 0 0 1 -1.638-1.64v-1.05a1.606 1.606 0 0 1 1.638-1.68h1.849v2.73a1.612 1.612 0 0 1 -1.638 1.64zm43.231-26.59 3.024 9.75a6.709 6.709 0 0 1 -.21 4.49l-1.6 2.65 3.528 2.06 1.6-2.61a11.342 11.342 0 0 0 .63-7.85l-3.024-9.7zm-17.514 29.19 3.822 1.6 1.89-4.66a24.917 24.917 0 0 0 1.512-7.86v-11.17h2.788a1.628 1.628 0 0 1 1.664 1.64v16.3a1.6 1.6 0 0 1 -1.008 1.63h-3.108v4.12h3.108c3.22-.48 4.928-2.39 5.124-5.75v-16.3q-.5-5.25-5.754-5.75h-2.816v-6.98h-4.116v6.98h-2.352v4.11h2.352v11.17a20.717 20.717 0 0 1 -1.218 6.3zm58.527-16.92a4.625 4.625 0 0 0 -4.62-4.62h-11.885v3.74h11.886a.825.825 0 0 1 .882.88v8.99a4.553 4.553 0 0 1 -1.47 2.98l-4.158 3.27 2.31 2.94 4.2-3.27a8.413 8.413 0 0 0 2.058-2.69 7.573 7.573 0 0 0 .8-3.23v-8.99zm38.808 1.72a3.685 3.685 0 0 0 .042-3.61 4.763 4.763 0 0 0 -4.158-1.98h-6.972v4.12h7.224l-1.134 2.06 3.612 1.97zm.042 16.84v-4.11h-8.148a1.514 1.514 0 0 1 -1.638-1.14v-3.23h-4.116v3.23q.672 4.965 5.754 5.25zm-22.428-1.17 3.99.84 1.974-9.37a47.562 47.562 0 0 0 .8-7.73v-9.95h7.434v-4.08h-7.434v-3.27h-4.116v3.27h-2.52v4.08h2.52v9.95a41.083 41.083 0 0 1 -.672 6.93zm50.993-33.69v4.12h2.646a2.3 2.3 0 0 1 .63 1.64v3.99h4.074v-3.99a7.1 7.1 0 0 0 -1.176-3.83 4.484 4.484 0 0 0 -3.528-1.93zm-.084 18.94a1.637 1.637 0 0 1 1.68 1.64v4.45a4.9 4.9 0 0 1 -2.184 3.62l-5.88 3.15 1.932 3.61 5.88-3.15a8.54 8.54 0 0 0 4.326-7.23v-4.45q-.5-5.25-5.754-5.75h-4.536a1.618 1.618 0 0 1 -1.638-1.64v-13.19h-4.116v13.19q.5 5.25 5.754 5.75zm26.132-11.42a19.311 19.311 0 0 1 6.972-1.55c2.716 0 4.074 1.07 4.074 3.23a4.411 4.411 0 0 1 -.441 1.93 5.879 5.879 0 0 1 -.9 1.43c-.308.34-.77.81-1.386 1.43-.532.5-.938.9-1.218 1.19a16.952 16.952 0 0 0 -1.092 1.35 8.666 8.666 0 0 0 -1.029 1.72 12.431 12.431 0 0 0 -.651 2.06 11.284 11.284 0 0 0 -.294 2.62h4.284a9.535 9.535 0 0 1 .315-2.24 6.12 6.12 0 0 1 .861-1.85 10.686 10.686 0 0 1 1.008-1.3c.28-.3.714-.72 1.3-1.28a15.966 15.966 0 0 0 1.533-1.43c.322-.37.714-.87 1.176-1.51a6.271 6.271 0 0 0 .987-2.15 11.081 11.081 0 0 0 .294-2.68 6.809 6.809 0 0 0 -2.184-5.28 8.744 8.744 0 0 0 -6.09-1.99 24.7 24.7 0 0 0 -8.316 1.55zm8.526 24.78v-5.88h-4.7v5.88z" fill="#fff" fill-rule="evenodd" transform="translate(-463.938 -1032.25)"/></svg>