<svg height="39.43" viewBox="0 0 227 39.43" width="227" xmlns="http://www.w3.org/2000/svg"><path d="m589.8 3581.77-.84 7.22h4.116l.882-7.22h3.906l-.966 7.22h4.158l.882-7.22h3.662v-4.5h-3.024l.924-8.06h3.57v-4.5h-2.9l.8-6.38h-4.158l-.8 6.38h-3.822l.756-6.38h-4.158l-.756 6.38h-3.738v4.5h3.066l-.882 8.06h-3.654v4.5zm8.652-4.5h-3.864l.924-8.06h3.864zm30-2.75a9.97 9.97 0 0 1 .5 3.21 6.932 6.932 0 0 1 -.294 2.54 1.169 1.169 0 0 1 -1.176.61h-.42v-10.2q.887 2.355 1.391 3.84zm-1.386-4.81v-9.7h2.352q-1.134 5.13-2.352 9.7zm14.868-15.45h-4.326v5.41h-4.408v-3.86h-10.123v36.96h3.99v-11.59l.252 4.03h1.05a3.8 3.8 0 0 0 3.36-1.51 8.733 8.733 0 0 0 1.05-4.87 19.368 19.368 0 0 0 -2.268-8.95q.8-2.22 1.68-5.46h3.066a104 104 0 0 1 -.525 11.95 25.67 25.67 0 0 1 -1.7 6.97 19.531 19.531 0 0 1 -3.822 5.52l3.108 3.87a24.191 24.191 0 0 0 4.851-7.73 40.381 40.381 0 0 0 2.079-10.63h4.952c-.056 3.59-.175 6.3-.357 8.15a14.36 14.36 0 0 1 -.63 3.57 1.13 1.13 0 0 1 -1.029.8 39.109 39.109 0 0 1 -4.452-.42l.168 5.04a48.3 48.3 0 0 0 5.376.42 4.078 4.078 0 0 0 2.52-.67 5.856 5.856 0 0 0 1.533-3.03 33.061 33.061 0 0 0 .882-6.72q.231-4.365.231-11.92h-8.942c.056-1.6.084-3.32.084-5.17h10.332v-4.75h-7.98v-5.41zm41.639 19.69a50.493 50.493 0 0 0 6.636-10.16l-3.066-3.15a70.871 70.871 0 0 1 -5.754 8.86 68.381 68.381 0 0 1 -2.268-7.81v-6.85h-4.284v31.21a6.145 6.145 0 0 1 -.126 1.7 1.143 1.143 0 0 1 -1.008.27q-.756 0-4.2-.21l.21 4.75q3.864.21 4.746.21a13.322 13.322 0 0 0 2.478-.17 2.354 2.354 0 0 0 1.386-.94 3.763 3.763 0 0 0 .693-1.98c.07-.8.1-2.05.1-3.76v-12.81a42.912 42.912 0 0 0 9.03 16.13l2.73-4.16a43.441 43.441 0 0 1 -7.308-11.13zm-13.608-6.09a40.11 40.11 0 0 1 -3 8.99 28.31 28.31 0 0 1 -4.725 7.39l2.436 4.46a31.886 31.886 0 0 0 5.964-9.31 44.193 44.193 0 0 0 3.234-11.53v-4.78h-10.5v4.78h6.594zm57.784 9.58v-13.44h-21.083v13.44h21.084zm-16.758-9.32h12.432v5.2h-12.431v-5.2zm19.32-7.35v-4.62h-26.211v4.62h26.208zm.294 30.82v-4.62h-7.35a75 75 0 0 0 2.394-7.56l-4.074-1.55a76.683 76.683 0 0 1 -3.108 9.11h-3.067a74.538 74.538 0 0 0 -2.562-9.11l-4.032 1.51q1.26 4.035 2.142 7.6h-7.14v4.62h26.8zm31.954-29.82h4.368v23.23h-4.367v-23.23zm-3.99 12.65v12.51a97.339 97.339 0 0 0 -4.452-10.79c.111-.67.181-1.25.21-1.72zm-8.442 0q-.968 8.73-5.838 13.77l2.436 4.29q3.863-3.405 5.922-10.46 1.26 3.525 3.15 7.94l2.772-2.9v4.95h3.99v-2.39h4.368v2.39h4.158v-35.02h-12.515v12.68h-3.948v-7.27h3.192v-4.62h-7.56q.292-2.1.42-3.36l-3.7-.75a77.168 77.168 0 0 1 -2.982 13.4l3.444 1.84a59.208 59.208 0 0 0 1.89-6.51h1.05v7.27h-5.964v4.75h5.712zm43.848 17.17v-11.29h-8.022v12.81h3.57v-1.52zm-4.452-7.26h1.26v3.23h-1.26zm9.87-17.94c-.477-2.71-.729-4.24-.756-4.57h1.974c-.168 1.51-.406 3.03-.714 4.57h-.5zm4.074 0c.252-1.45.476-2.98.672-4.57h.63q0 .75.021 2.31c.014 1.03.035 1.79.063 2.26zm-2.6 16.64v2.6h-2.397v-2.6h2.394zm-2.394-6.43h2.394v2.48h-2.397v-2.48zm-4.578-16.34v-4.24h-7.938v4.24zm-.084 18.19v-4.08h-7.686v4.08zm15.834 5.12c.392-.81.783-1.68 1.176-2.6q-.378 5.79-.588 5.79a12.059 12.059 0 0 1 -.588-3.19zm1.344-3.06a63.26 63.26 0 0 0 2.478-7.02l-3.192-2.1c-.477 1.49-.91 3.12-1.3 4.92-.057-2.08-.1-3.98-.126-5.72h4.494v-4.2h-4.662q-.042-2.31-.084-7.05.714 3.36 1.638 6.34l2.94-1.68a73.128 73.128 0 0 0 -2.6-7.85l-2.016 1.47v-3.15h-3.822v3.02h-3.066v-3.23h-4.2v3.23h-3.528v4.33h1.008c.252 1.37.5 2.89.756 4.57h-1.554v-4.36h-8.652v4.53h7.799v1.85h-7.182v4.12h7.686v-1.94h11.176q.252 7.53.8 11.97l-1.3 2.61v-12.69h-9.7v19.11h3.7v-1.97h2.772l1.6 2.86a18.467 18.467 0 0 0 3.99-4.71q1.134 4.875 3.738 4.87 2.813 0 3.234-10.37z" fill="#fff" fill-rule="evenodd" transform="translate(-586.812 -3553.66)"/></svg>