<svg viewBox="0 0 253.31 242.8" xmlns="http://www.w3.org/2000/svg"><path d="m78.52 121.09 91.15 108.62c9.06 10.79 25.15 12.2 35.94 3.14 10.79-9.06 12.2-25.15 3.14-35.94l-91.15-108.62c9.26-20.25 6.74-44.88-8.52-63.07-15.96-19.03-41.3-25.54-63.6-18.47l40.85 48.68-34.74 29.15-40.85-48.68c-10.83 20.73-8.82 46.82 7.15 65.85 15.26 18.19 39.09 24.95 60.63 19.34" fill="#ffb8c1"/><path d="m96.75 142.81 72.93 86.91c9.06 10.79 25.15 12.2 35.94 3.14 10.79-9.06 12.2-25.15 3.14-35.94l-91.15-108.62c9.26-20.25 6.74-44.88-8.52-63.07-15.97-19.04-41.31-25.55-63.61-18.48" fill="none" stroke="#0064b3" stroke-linecap="round" stroke-linejoin="round" stroke-width="7.94"/><path d="m70.99 37.15 15.34 18.28-34.74 29.15-40.85-48.68c-10.83 20.73-8.82 46.82 7.15 65.85 15.26 18.19 39.09 24.95 60.63 19.34" fill="none" stroke="#0064b3" stroke-linecap="round" stroke-linejoin="round" stroke-width="7.94"/><path d="m195.72 18.88s-53.62 54.46-53.62 103.39c0 29.38 19.7 56.14 53.62 56.14s53.62-26.75 53.62-56.14c0-48.93-53.62-103.39-53.62-103.39z" fill="#fff"/><path d="m215.45 42.31c-10.67-14.23-19.72-23.43-19.72-23.43s-53.62 54.46-53.62 103.39c0 14.69 4.92 28.72 14.08 39.08 9.16 10.37 22.57 17.06 39.53 17.06 33.92 0 53.62-26.75 53.62-56.14" fill="none" stroke="#0064b3" stroke-linecap="round" stroke-linejoin="round" stroke-width="7.94"/></svg>