<svg viewBox="0 0 313 106" width="313" height="106" xmlns="http://www.w3.org/2000/svg"><g fill="#0064b3"><path d="m20.67 41.15c-.47 0-.75-.35-.75-.94.02-1.09.05-2.37.09-3.77.07-2.6.15-5.55.15-8.24v-.25h-8.01l-.05.02c-.24.11-.43.19-.59.26-.85.35-.88.48-.96 1.67l-.04.54c-.1 1.2-.1 2.2-.1 7.7 0 .62-.72 1.13-1.32 1.13-.46 0-.7-.29-.7-.85v-.14l.08-1.51c.11-1.99.2-3.72.2-5.21 0-1.33-.08-3.42-.43-5.83v-.12c.61.04 3.07 1.13 3.59 1.43l.05.06.07.07h8.2v-.48c0-3.16-.09-4.06-.29-4.89l-.05-.19h-6.63v.62c0 .71-.69 1.03-1.18 1.03-.37 0-.8-.2-.8-.76v-.14c.2-2.13.29-4.43.29-5.75 0-.59 0-1.96-.39-3.56 0-.02-.01-.04-.02-.06.77.21 2.71 1.16 3.41 1.62l.06.04h12.42c.29 0 .64-.04.87-.33.71-.91.84-.91.99-.91.9 0 3.14 1.56 3.14 2.05 0 .32-.51.56-.85.71l-.15.07c-.93.47-.96.63-.96 1.89 0 .69.08 1.42.17 2.27.05.49.11 1.02.16 1.62 0 .43-.67.73-1.28.73-.2 0-.65-.04-.65-.39v-.76h-6.1l.74.47c.07.07.06.19-.3.45-.11.07-.21.13-.3.18-.7.4-.72.58-.72 2.38v2.1h9.34c.35 0 .58-.07.83-.43.18-.34.35-.63.65-.63.72 0 3.43 1.52 3.43 2.05 0 .13-.13.25-.5.47-.28.16-.52.25-.7.33-.76.31-.92.51-1 1.9v.57c0 .32.01.61.02.9s.02.59.02.94c0 .38.03.68.07.99.04.33.08.68.08 1.17 0 2.93-4.2 3.33-4.24 3.33-.27 0-.35-.07-.56-.36-.34-.43-1.51-1.02-3.13-1.79-.23-.11-.47-.23-.7-.34l.53.1c1.13.21 2.42.46 3.53.46 2.3 0 2.65-1.05 2.65-1.68.05-2.8.05-3.77.05-6.39 0-.81-.66-.81-.88-.81h-9.49v.25c0 4.33.06 7.73.19 11.74 0 .71-.67 1.21-1.28 1.21zm-6.55-25.68c-.68.4-.98.62-.98 1.69v.28c0 .25 0 .63.02 1.09.01.65.03 1.45.03 2.18v.25h15.24v-.25c0-.7.01-1.35.03-1.95.01-.51.02-.98.02-1.41 0-.46 0-.89-.05-1.27 0-.16-.2-.64-.68-.64h-13.56l-.07.04zm-12.64.42c-.7 0-1.23-.42-1.23-.99 0-.53.32-1.05.95-1.55 3.37-2.68 4.06-4.39 4.72-7.38.17.34.41 1.23.41 2.53 0 .11-.01.21-.02.32-.01.12-.02.25-.02.37v.25h14v-3.43c-.04-1.27-.16-4.36-.53-5.76 1.15.09 4.23.82 4.23 1.35 0 .25-.37.55-.71.81l-.14.09c-1.02.62-1.06.7-1.17 2.03l-.03.32c-.03.38-.05 1.34-.08 2.29-.02.79-.04 1.58-.06 2.04v.27s14.32 0 14.32 0c.18 0 .73-.23.96-.51.31-.33.48-.43.78-.61l.11-.07c.11-.07.26-.1.35-.1 1.85.58 3.38 2.27 3.38 3.06 0 .41-.48.63-1.43.67-1.71.07-3.46 1.03-4.86 1.8-.42.23-.82.45-1.17.62.77-1.13 2.18-3.24 2.18-3.73 0-.36-.24-.48-.45-.48h-29.82l-.04.2c-1.11 5.35-4.59 5.59-4.63 5.59zm23.73-7.05c3.45-3.49 4.32-4.95 5.07-7.29l.05-.15c.71.29 3.81 1.99 3.81 2.65 0 .1-.28.25-.89.25h-.72c-.54 0-.79.12-1.25.46-.22.15-.6.41-1.07.73-1.38.95-3.65 2.5-4.99 3.35zm-10.67-1.73c-.51 0-1.04-.36-1.46-.99-.86-1.25-3.02-2.79-4.05-3.43-.05-.03-.08-.06-.12-.08h.13c1.38.04 6.54.71 6.54 3.33 0 .67-.45 1.17-1.04 1.17z"/><path d="m70.2 40.96c.21-.08.49-.18.86-.27 5.95-1.41 11.06-4.91 14.78-10.13l.08-.11-.04-.12c-1.1-3.22-1.79-7.17-2.09-12.08v-.24h-9.01c-2.42 0-3.58.08-5.9.25l-.38.03c-.56 0-1.33-.86-1.59-1.39 4.25.43 5.5.51 7.8.52h9.01v-.27c-.1-1.6-.14-3.09-.17-4.4-.04-1.56-.07-2.91-.18-3.85-.01-.17-.03-.42-.05-.74-.12-1.81-.38-5.56-.96-7.35h.04c3.31.21 3.81.85 3.81 1.22 0 .22-.14.43-.43.68-.11.08-.22.15-.32.2-.59.36-.69.55-.73 2.19-.05 1.79-.1 3.56-.1 5.34 0 2.5.06 4.71.19 6.73l.02.24h4.83c.21 0 .68-.16.89-.49l.08-.11c.86-1.2 1.18-1.33 1.28-1.33.14.03.21.05.29.05 1.51.58 2.7 2.01 2.76 2.29 0 .05-.2.19-.8.19h-9.31l.02.27c.26 4.02.83 7.55 1.68 10.5l.16.56.3-.5c2.58-4.33 2.99-6.44 3.05-7.15 0-.04 0-.07 0-.11.74.21 3.37 1.49 3.41 1.93 0 .19-.32.39-1.04.39s-.97.27-1.19.75c-1.01 2.41-2.26 4.6-3.7 6.53l-.09.12.06.14c2.06 4.77 4.86 5.86 5.21 5.86.8 0 1.55-.9 3.44-5.82.03-.07.05-.14.07-.2-.03.7-.16 1.79-.29 2.94-.16 1.42-.33 2.88-.33 3.7 0 .33 0 .52.08.67.21.4.31.73.31 1.03 0 .87-.83.94-1.08.94-1.45 0-5.52-1.98-8.14-7.85l-.16-.36-.26.3c-5.78 6.61-14.18 8.21-16.15 8.32zm-13.79-.54c-.24 0-.65-.09-.65-.67v-.14c.28-3.42.33-5 .33-6.72 0-1.96-.29-5.83-.63-7.55 0-.01 0-.02 0-.04.61.23 2.41.93 3.28 1.62l.07.06h3.05c.33 0 .65-.19.84-.49.19-.31.64-.81.78-.91l.07-.02s.03 0 .05 0c.13 0 .27.04.4.1 2.43 1.34 2.63 1.77 2.63 2.07s-.41.51-.71.67c-.09.05-.17.09-.23.13-.88.53-.88 1.02-.88 2.84 0 1.13.07 2.4.17 4.01.04.65.08 1.35.12 2.12 0 .75-.58 1.11-1.13 1.11-.19 0-.8-.06-.8-.85v-1.54h-5.68v.25c0 .48.01.97.02 1.47s.02 1.01.02 1.52-.62.94-1.13.94zm2.23-12.62c-.1.05-.23.11-.35.23-.74.5-.74 1-.74 1.54v.38c-.05 1.85-.05 3.63-.05 5.35v.25h5.67v-.25c.06-1.52.06-2.63.06-3.69s0-1.99-.1-3.15c0-.62-.34-.69-.49-.69h-3.93l-.06.03zm11.64 9.27c-.41 0-.61-.23-.61-.71v-.14c.19-2.58.24-7.33.24-9.48 0-.51-.14-4.29-.48-5.99 0-.02 0-.03 0-.05.63.23 2.35 1.14 3.09 1.69l.07.05h4.15c.34 0 .65-.24.82-.47.27-.45.62-.92.73-.99.04-.02.04-.02.12-.02.5 0 2.76 1.4 2.76 2.09 0 .27-.3.47-.57.65-.12.08-.23.16-.3.23-.64.46-.8 1-.8 2.85 0 1.7.14 5.34.24 6.96 0 .94-.65 1.25-1.08 1.25-.28 0-.75-.12-.75-.9v-.62h-6.54v2.56c0 .61-.57 1.03-1.08 1.03zm1.08-4.18h6.58v-.25c.06-1.29.06-2.79.06-4.24v-.25h-6.63v4.74zm1.09-9.74c-.19.16-.34.27-.47.36-.47.34-.62.49-.62 1.35v2.74h6.63v-.25c0-1.51 0-2.82-.1-3.58 0-.12-.17-.68-.73-.68h-4.64zm-15.29-.98c-.39 0-1.23-.94-1.49-1.58 2.48.47 4.02.58 4.21.58h1.2c.2 0 .58-.2.71-.52.49-.85 1.17-1.68 1.39-1.68h.11c.81.39 2.65 1.7 2.65 2.5 0 .3-.38.34-.61.34h-5.84s-.11.01-.26.04c-.28.05-.86.17-2.06.33h-.03zm18.01-5.3c1.02-2.47 1.96-5.65 2.05-6.99 0-.06.02-.12.02-.18.79.24 3.24 1.41 3.35 1.83 0 .04-.16.25-.88.33-.57.08-.71.25-.9.54-.05.07-.1.15-.17.24-.58.77-1.64 2.11-3.46 4.22zm-18.01-.55c-.31 0-1.25-.88-1.5-1.59 2.74.52 4.26.58 4.27.58h1.15c.2 0 .58-.2.71-.52.49-.84 1.22-1.67 1.42-1.73h.08c1.08.5 2.65 1.78 2.65 2.55 0 .3-.38.34-.61.34h-5.84s-.16.02-.35.06c-.39.08-1.11.21-1.96.31h-.03zm15.26-1.01c-.59 0-.87-.62-1-1.14-.24-1-1.04-2.69-1.92-3.7-.02-.02-.04-.05-.06-.09.91.24 4.02 1.56 4.02 3.57 0 .78-.55 1.36-1.04 1.36zm19.76-3.86c-.48 0-.96-.4-1.3-1.1-.69-1.33-1.99-2.83-3.31-3.83 2.22.25 5.55 1.76 5.55 3.76 0 .67-.4 1.17-.94 1.17zm-37.65-.64c-.35 0-1.27-1.05-1.59-1.64 3.29.49 5.23.59 7.24.59h1.82c.21 0 .57-.21.74-.49.42-.8 1.27-2.02 1.55-2.04h.11c1.7.72 3.04 2.7 3.08 3.02 0 .09-.24.15-.61.15h-6.79c-1.91 0-2.48.04-5.52.41zm14.78-2.25c-.54 0-1.29-.86-1.59-1.37 3.27.42 4.54.5 5.94.5h.25v-.25c0-.21-.01-.46-.03-.69 0-.17-.02-.32-.02-.42v-.46c-.06-1.49-.12-3.54-.39-4.44 0-.01 0-.02-.01-.03 1.21.06 4.14.69 4.25 1.12 0 0 0 .2-.68.55l-.15.09c-1 .58-1.08.65-1.13 1.65 0 .19-.02.43-.05.72-.05.37-.05 1.3-.05 1.91v.25h1.07c.23 0 .65-.14.84-.44.35-.45 1.25-1.35 1.5-1.35.14.03.21.05.29.05 1.91.73 2.94 1.78 3 2.02 0 .1-.25.23-.8.23h-6.22c-1.86 0-3.98.13-5.99.37h-.03zm-12.49-4c-.41 0-1.24-.94-1.49-1.58 2.62.49 4.65.62 4.84.62h1.48c.21 0 .61-.25.79-.53.45-.81 1.29-1.8 1.52-1.86h.09c1.52.69 2.84 2.16 2.84 2.68 0 .11 0 .34-.56.34h-6.55c-.13 0-.37.03-.91.09-.43.05-1.07.13-2.03.23h-.03z"/><path d="m123.76 39.91c-6.28 0-8.88-3.91-8.88-6 0-3.81 5.29-7.19 7.57-8.47l.13-.07v-.15c0-6.33-2.55-7.02-3.65-7.02s-2.95.67-5.32 3.88c-1.29 2.3-2.9 4.91-4 4.91-.65 0-.8-.7-.8-.94 0-.88.6-1.93 1.64-2.9 4.18-3.88 5.84-6.27 8.48-12.23l.2-.45-.48.09c-.15.03-.28.07-.41.12-.08.03-.15.05-.23.07-1.15.28-2.03.41-2.76.41-3.67 0-4.91-2.39-5.15-3.26.15.08.36.2.65.41 1.5.98 2.91 1.43 4.46 1.43 1.33 0 2.88-.35 4.22-.7l.15-.04.04-.15c.17-.69.25-1.34.25-2.04 0-2.07-1.04-2.51-2.39-2.87-.21-.03-.28-.1-.29-.12.04-.02.55-.53 1.61-.53 2.04 0 2.47 1.59 2.47 2.92 0 .56-.08 1.17-.23 1.88l-.1.44.42-.14s2.52-.98 2.52-2.04c0-.36-.39-.66-1.18-.93-.06-.02-.11-.04-.16-.07h.17c.37.05.8.05 1.15.05.72 0 .97 0 1.12-.07l.08-.02c.06-.02.12-.04.14-.04.5 0 .51.75.51.76 0 1.78-2.85 3.13-5.23 3.95l-.11.04-.04.11c-1.28 3.06-3.18 6.17-4.1 7.66l-.19.31.35.35c.9-.53 1.79-.79 2.74-.79 2.17 0 3.99 1.78 4.63 4.54l.18.75.31-.71c1.91-4.43 5.79-9.6 10.43-9.6 1.89 0 5.53 1.56 5.53 3.7 0 1.51-1.96 3.23-5.1 4.5l-1.34.54c-2.93 1.17-6.57 2.63-9.44 4.02l-.15.08v.17c.06.68.06 1.43.06 2.14 0 .88 0 1.78-.09 2.69-.09 1.32-1.04 2.3-1.61 2.3-.38 0-.61-.49-.61-1.31 0-.08.01-.16.02-.24.01-.1.03-.21.03-.31.04-.45.13-.73.25-1.05.16-.47.35-1 .38-2.16v-1.46l-.38.22c-3.97 2.25-6.16 4.78-6.16 7.12s2.36 4.53 6.86 4.53c2.01 0 3.97-.43 5.52-1.22.4-.19.8-.29 1.18-.29.69 0 1.23.37 1.23.85 0 1.75-4.99 2.46-7.06 2.46zm10.57-26.5c-4.25 0-8.57 5.38-10.29 10.57v.22s-.01.41-.01.41l.37-.18c1.81-.9 4.23-2.06 6.5-3.13 1.09-.52 2.14-1.02 3.07-1.46 2.61-1.25 3.88-2.47 3.88-3.73 0-.35-.65-2.69-3.51-2.69z"/><path d="m170.98 40.6c-.23 0-.75-.06-.75-.67v-.18c.43-3.72.48-7.93.48-9.57 0-.78-.14-1.77-.48-3.32 0-.01 0-.03 0-.04.67.23 2.39 1.04 3.44 1.77l.07.05h9.27c.35 0 .66-.12.89-.35.14-.14.32-.34.49-.55.21-.25.44-.53.57-.62.15-.1.15-.1.2-.1.45.04 2.95 1.42 2.95 2.05 0 .2-.29.46-.71.64-1.12.51-1.25.67-1.25 2.26 0 1.44.15 4.52.34 7.01 0 .81-.62 1.2-1.23 1.2-.36 0-.8-.15-.8-.85 0-.32.01-.58.02-.84.01-.27.02-.54.02-.82v-.25h-12.23v.25c0 .3.01.6.02.92s.02.64.02.97c0 .99-1.31 1.03-1.32 1.03zm2.38-11.15-.26.16c-.75.44-.8.52-.81 1.41 0 .22 0 .49-.03.86 0 .16 0 .35-.02.58-.01.34-.03.76-.03 1.23 0 .36 0 .77.02 1.2.01.5.03 1.04.03 1.61v.25h12.28v-.25c0-.44.01-.88.02-1.32.01-.43.02-.85.02-1.26 0-1.45-.05-2.78-.14-3.93 0-.21-.19-.69-.78-.69h-9.96l-.34.16zm-16.54 10.28c-.23 0-.32-.02-.45-.24-.29-.43-1.18-1.07-2.12-1.74-.5-.36-1.12-.81-1.47-1.11h.06c1.58.42 2.87.62 3.84.62 1.81 0 2.68-.72 2.74-2.27.05-2.91.05-7.13.05-11.6v-.4l-1.28.58c-1.31.59-2.66 1.21-4.19 1.83-.26.11-.42.27-.53.39-.09.09-.14.14-.18.14-.34-.09-1.51-1.82-1.88-2.53h.16c2.01 0 3.26-.31 7.72-1.48l.19-.05v-.2c0-3.17 0-6.44-.05-9.16v-.26s-.41.01-.41.01c-1.56.05-3.33.1-5.48.37-.36 0-1.28-1.05-1.61-1.64 3.11.45 6.07.56 7.23.59h.26s0-.25 0-.25c0-.98-.03-1.88-.06-2.68-.02-.63-.04-1.2-.04-1.69 0-1.35-.07-3.94-.53-6.08-.01-.03-.02-.07-.03-.1 1.05.09 4.46.76 4.46 1.35 0 .16-.25.47-.68.7-.18.09-.34.14-.46.19-.78.29-.79.42-.86 2.59l-.16 5.98h1.31c.2 0 .55-.2.75-.39.19-.22.38-.45.56-.69.34-.44.7-.89.98-1.08.1-.06.19-.1.29-.1.88 0 3.23 2.28 3.24 2.74 0 .05-.18.16-.7.16h-6.42v.25c-.05 2.54-.1 5.71-.1 8.61v.35l.33-.1c2.22-.7 4.5-1.43 6.09-2.08.04-.01.09-.03.14-.04-.02.01-.03.03-.06.04-.99.45-2.15 1.08-3.48 1.81-.87.47-1.82 1-2.89 1.55l-.14.07v.15c0 2.48.05 4.95.1 7.04 0 .19.04 1.06.09 2.08.07 1.35.15 3.03.15 3.53 0 3.5-3.59 4.25-4.48 4.25zm10.47-15.87c-.41-.02-1.59-1.15-2.02-1.78 3.71.49 11.15.62 12.02.63h.25s0-.25 0-.25c.05-1.57.05-3.33.05-4.75v-.26h-.26c-2.42.09-4.3.2-5.75.33-.57 0-1.4-.93-1.62-1.51 2.76.38 5.83.46 7.33.5h.26s0-1.82 0-1.82c0-1.38-.16-2.78-.34-4.08 0-.02-.01-.04-.02-.06.96.13 3.82.81 3.86 1.24s-.04.15-.5.43l-.13.07c-1.12.58-1.34.76-1.43 2.99 0 .17-.01.32-.02.48-.01.17-.02.33-.02.5v.25h3.12c.2 0 .45-.15.75-.44 1.08-1.16 1.31-1.36 1.45-1.36.05 0 .1 0 .15.02.05.01.12.02.19.02.27.11 2.42 1.22 2.42 2 0 .34-.47.39-.75.39h-7.38v1.77c0 1.16 0 2.26.05 3.32v.24h8c.23 0 .6-.19.79-.49.41-.69 1.35-1.72 1.61-1.77.82 0 3.23 1.84 3.23 2.64 0 .2-.22.3-.65.3h-13.54c-.75 0-7.38.01-11.11.41zm-2.8-5.93c5.51-3.97 9.48-8.9 12.13-15.06.28-.63.31-1.77.31-2.3.03 0 .08.02.12.03 1.98.52 3.17.9 3.55 1.14.04.02.07.07.07.11 0 .08-.17.3-.82.49-.25.07-.39.08-.48.08-.31.02-.38.13-.58.5l-.18.35.12.13c4.01 4.56 10.37 9.82 16.26 10.96-.19.05-.41.11-.6.16-1.04.27-2.46.65-3.11 1.27-.06.05-.19.11-.25.11-.82-.02-8.21-5.67-12.42-11.85l-.23-.34-.2.36c-4.95 8.69-11.29 12.81-13.69 13.86z"/><path d="m228.44 38.67c-2.27 0-9.7-.81-9.7-11.29 0-5.75 2.19-12.4 5-15.14.33-.32.41-.4.41-.55v-.25l-.3-.05c-.76 0-4.78 1.46-11.36 4.72-.87.46-1.96.71-3.09.71-1.65 0-3.43-.63-3.43-2 0-.07.01-.1.02-.1h.04c.22 0 .43.06.62.12.15.04.29.08.41.1.73.15 1.58.23 2.43.23.95 0 1.82-.12 2.66-.38.31-.1 1.1-.45 2.29-.99 3.54-1.6 10.12-4.58 15.73-5.95.25-.06.49-.15.78-.25.65-.24 1.46-.54 3.01-.66h.17c1.07 0 4.58.12 4.58 1.68 0 .57-.65.94-1.66.94-.32 0-.69 0-1.04-.09-.97-.16-1.93-.24-2.79-.24-2.46 0-5.14.51-6.67 1.27-4.08 2.11-6.6 9.93-6.6 15.96 0 9.24 6.16 9.96 8.05 9.96 1.04 0 2.07-.16 3.04-.47.36-.12.71-.17 1.07-.17.91 0 1.56.42 1.56.99 0 .92-2.01 1.91-5.25 1.91z"/><path d="m276.47 38.67c-2.27 0-9.7-.81-9.7-11.29 0-5.75 2.19-12.4 5-15.14.33-.32.41-.4.41-.55v-.25l-.3-.05c-.76 0-4.78 1.46-11.36 4.72-.87.46-1.96.71-3.09.71-1.65 0-3.43-.63-3.43-2 0-.07.01-.1.02-.1h.04c.22 0 .43.06.62.12.15.04.29.08.41.1.73.15 1.58.23 2.43.23.95 0 1.82-.12 2.66-.38.31-.1 1.1-.45 2.29-.99 3.54-1.6 10.12-4.58 15.73-5.95.25-.06.49-.15.78-.25.65-.24 1.46-.54 3.01-.66h.17c1.07 0 4.58.12 4.58 1.68 0 .57-.65.94-1.66.94-.32 0-.69 0-1.04-.09-.97-.16-1.93-.24-2.79-.24-2.46 0-5.14.51-6.67 1.27-4.08 2.11-6.6 9.93-6.6 15.96 0 9.24 6.16 9.96 8.05 9.96 1.04 0 2.07-.16 3.04-.47.36-.12.71-.17 1.07-.17.91 0 1.56.42 1.56.99 0 .92-2.01 1.91-5.25 1.91z"/><path d="m311.68 40.87c-.54 0-1.05-.39-1.4-1.06-1.49-2.82-4.4-4.76-5.97-5.8-.12-.08-.52-.34-.61-.39 1.9.16 9.49 1.82 9.49 5.44 0 1.09-.78 1.82-1.52 1.82z"/><path d="m4.61 105.01c-.83 0-1.97 0-2.59-.06.07-.01.14-.03.23-.03l1.16-.09c7.49-.55 21.43-1.56 28.35-11.52.7-1.03.79-1.4 1.04-2.4l.05-.22s.05-.08.06-.09c.52.23 3.6 1.89 3.6 2.56 0 .21-.29.5-1.12.62l-.43.06c-.36.04-.52.06-.7.15-.2.13-.32.25-.61.57-7.89 9.21-19.1 10.45-29.04 10.45zm14.94-7.78s-.03-.06-.06-.1c-.03-.06-.07-.12-.13-.2-.38-.57-1.91-1.3-3.86-2.21-.23-.11-.47-.22-.7-.33 2.04.37 3.47.54 4.59.54 2.03 0 3.07-.66 3.17-2.03.1-1.2.1-2.99.1-4.71 0-4.52-.04-6.33-.49-7.54l-.06-.17h-3.43c-3.12 0-10.11.11-14.28.51-.63 0-1.59-1.16-1.88-1.8 2.94.32 6.95.48 9.84.56h.26s0-6.37 0-6.37c0-1.97-.39-3.84-.52-4.43h.17c4 .26 4.05.96 4.05.99 0 .21-.46.62-1.13.87-.65.25-.79.59-.79 8.75v.25l1.2.03c1.36.04 2.51.07 3.21.07h3.79v-11.02c0-1.81-.33-3.52-.53-4.38 0-.02 0-.03 0-.05h.14c1.41.09 4.05.7 4.05 1.13 0 .09-.09.43-1.19.92-.75.3-.77.78-.77 5.11v.25h6.14c.44 0 .85-.29 1.03-.58.39-.66 1.62-2.23 2.08-2.23.08 0 .14 0 .18.02 1.64.54 3.68 2.37 3.68 3.08 0 .21-.31.34-.8.34h-12.31v.25c0 1.34.01 2.79.03 4.09.01 1.08.02 2.06.02 2.81v.25h12.21c.42 0 .84-.31 1.03-.63 1.01-1.39 1.76-2.32 2.13-2.32.08 0 .13 0 .18.02 1.68.57 3.73 2.73 3.73 3.17 0 .21-.31.34-.8.34h-18.13l-.06.5c1.62.38 1.62.49 1.62.72 0 .21-.22.45-.43.55-1.15.5-1.48.87-1.48 2.3 0 .46-.01 1.17-.02 1.95-.01.92-.03 1.93-.03 2.7v.92c0 .24.03.62.08 1.05.05.58.12 1.23.12 1.8 0 3.94-4.86 4.25-4.91 4.25-.03 0-.04 0-.04 0zm-17.19-.29c3.27-1.29 11.14-7.98 11.88-11.83 0 0 .03-.15.03-.17.66.34 3.23 2.17 3.24 2.65 0 .3-.37.48-.99.48h-.48c-.56 0-.96.18-1.34.59-5.53 5.65-10.64 7.89-12.5 8.34.05-.02.1-.04.15-.06zm39.23-3.57c-.44 0-.91-.3-1.43-.92-2.02-2.35-6.34-4.76-9.85-6.46 3 .36 12.08 2.32 12.08 6.21 0 .67-.34 1.17-.8 1.17z"/><path d="m73.55 101.65c-7.3 0-13.23-3.08-13.23-6.88 0-1.91 1.81-3.98 2.28-3.98-.06.12-.11.36-.45.84-.63.79-.95 1.59-.95 2.35 0 3.43 5.89 5.55 11.35 5.55 1.3 0 2.49-.11 3.63-.33 1.49-.27 2.54-.66 3.39-.97.6-.22 1.12-.41 1.63-.5.37-.09.68-.09 1.01-.09 1.08 0 1.8.34 1.8.85 0 1.39-4.93 3.15-10.46 3.15zm-4.11-22.18c.14-.28.74-1.12 2.48-2.88.73-.76 1.03-1.1 1.03-1.42 0-.58-.75-.58-1.07-.58l-2.38-.09c-4.1-.12-5.97-2.18-6.31-2.75.28.03.7.18 1.02.29l.32.11c2 .74 4.09.84 5.87.84.82 0 1.64-.02 2.46-.05.8-.02 1.59-.05 2.37-.05.37 0 .72-.02 1.06-.05.32-.02.63-.04.95-.04 2.39 0 3.38 1 3.38 1.54 0 .4-.6.68-1.52.71-2.56.09-6.2 2.13-8.75 4.01-.33.24-.65.39-.9.41z"/><path d="m111.47 105.64c.2-.12.46-.26.8-.42 6.88-3.29 14.26-12.09 14.26-19.97 0-4.37-2.17-7.8-4.94-7.8-1.65 0-3.23 1.07-4.56 2.12-1.04.9-1.85 1.28-2.71 1.28-1.56 0-3.38-1.36-3.38-3.1 0-.57.31-.95.4-.99-.03.02.03.14.04.18.36.82 1.12 1.26 2.17 1.26 1.14 0 2.42-.46 3.37-.79 1.37-.53 3.21-1.24 5.01-1.24 4.53 0 6.63 5.45 6.63 9.13 0 2.11-.46 4.27-1.37 6.43-4.07 9.93-13.27 13.21-15.71 13.91zm4.43-33.67c.62-.52 1.37-1.11 1.96-1.58.42-.33.75-.59.91-.73.33-.26.52-.55.52-.79 0-.37-.36-.51-.5-.56-.07-.03-.19-.05-.42-.1-.92-.17-3.08-.58-4.3-2.25-.09-.13-.15-.23-.18-.3.13.04.32.12.58.26 1.4.72 4.82 1.18 6.15 1.18.23 0 .45-.01.67-.02.2-.01.39-.02.57-.02.71 0 2.66.42 2.66 1.77 0 .61-.79.84-1.98.99-1.45.2-4.51.96-6.55 2.15-.07.04-.14.07-.21.1.03-.03.07-.06.11-.09z"/><path d="m161.48 105.24c-2.95 0-5.34-2.3-5.34-5.13s2.4-5.08 5.34-5.08 5.29 2.28 5.29 5.08-2.38 5.13-5.29 5.13zm0-9.15c-2.29 0-4.22 1.84-4.22 4.03s1.93 4.07 4.22 4.07 4.18-1.87 4.18-4.07-1.87-4.03-4.18-4.03z"/></g></svg>